<svg width="255" height="244" viewBox="0 0 255 244" fill="none" xmlns="http://www.w3.org/2000/svg">
<g opacity="0.5">
<path d="M20.1388 107.459C14.7179 98.0676 11.5943 87.1854 11.5943 75.5777C11.5943 40.2978 40.2978 11.5943 75.5777 11.5943C106.552 11.5943 132.454 33.7214 138.312 62.9959H150.101C144.089 27.2929 112.96 0 75.5777 0C33.9028 0 0 33.9028 0 75.5777C0 88.8782 3.45946 101.393 9.51857 112.262C12.5884 109.991 16.1822 108.339 20.1388 107.459Z" fill="#B2B2B2"/>
<path d="M74.8726 128.397C75.1077 128.397 75.3429 128.417 75.5847 128.417C87.7096 128.417 98.8874 124.299 107.815 117.407C99.0822 115.835 92.4588 110.629 89.0934 102.965C85.0159 104.98 80.4347 106.122 75.5847 106.122C58.7441 106.122 45.0405 92.4183 45.0405 75.5777C45.0405 72.434 45.5175 69.3977 46.4042 66.5428C43.1194 63.8021 41.0235 59.6776 41.0235 55.0695C41.0235 46.8205 47.7141 40.1299 55.9631 40.1299C60.813 40.1299 65.1257 42.4474 67.853 46.0278C70.325 45.3829 72.9112 45.0336 75.5847 45.0336C88.5426 45.0336 99.6397 53.1483 104.066 64.5679C107.291 63.5133 110.858 62.9692 114.673 62.9692L126.899 62.9826C121.236 39.9082 100.385 22.7385 75.5914 22.7385C46.458 22.7385 22.7522 46.4443 22.7522 75.5777C22.7522 87.219 26.5409 97.9803 32.9425 106.72H48.097C61.243 106.72 72.2595 116.037 74.8726 128.397Z" fill="#B2B2B2"/>
<path d="M86.6211 90.3899C86.6547 79.0173 91.4845 72.6021 95.5284 69.2233C97.4362 67.6313 99.5992 66.3348 101.984 65.3473C97.8795 54.7674 87.6086 47.264 75.5844 47.264C73.361 47.264 71.2046 47.526 69.1357 48.0097C70.2642 50.1122 70.9023 52.5103 70.9023 55.063C70.9023 63.3119 64.2118 70.0025 55.9628 70.0025C53.1751 70.0025 50.562 69.2367 48.3318 67.9067C47.6467 70.3451 47.2705 72.9178 47.2705 75.5779C47.2705 91.2161 59.9463 103.892 75.5844 103.892C80.1523 103.892 84.4581 102.804 88.2803 100.882C87.1921 97.7186 86.6144 94.1987 86.6211 90.3899ZM71.0233 75.5779C71.0233 73.0589 73.0654 71.0168 75.5844 71.0168C78.1035 71.0168 80.1455 73.0589 80.1455 75.5779C80.1455 78.097 78.1035 80.1391 75.5844 80.1391C73.0654 80.1391 71.0233 78.097 71.0233 75.5779Z" fill="#D2D2D2"/>
<path d="M159.33 68.5579H115.553C103.428 68.5579 93.6 78.3854 93.6 90.5104C93.6 102.635 103.428 112.463 115.553 112.463H159.33C171.455 112.463 181.282 102.635 181.282 90.5104C181.289 78.3854 171.455 68.5579 159.33 68.5579Z" fill="#B2B2B2"/>
<path d="M158.06 90.443C158.06 81.361 152.512 73.5688 144.612 70.2504C141.979 69.142 139.225 68.5577 136.182 68.5577C136.162 68.5577 114.666 68.5308 114.666 68.5308C103.065 68.5308 92.2229 74.4757 92.1759 90.4094C92.1356 103.945 100.727 112.362 113.524 112.362H114.008V138.358C133.428 160.378 158.054 146.963 158.054 127.812V90.4631V90.4564L158.06 90.443Z" fill="#D2D2D2"/>
<path d="M109.023 134.348H26.1436V178.294H109.023C136.047 178.294 157.959 158.618 157.959 134.348V90.403C157.959 114.673 136.047 134.348 109.023 134.348Z" fill="#B2B2B2"/>
<path d="M92.9618 164.899C97.7365 164.899 101.607 161.029 101.607 156.254C101.607 151.479 97.7365 147.609 92.9618 147.609C88.1872 147.609 84.3165 151.479 84.3165 156.254C84.3165 161.029 88.1872 164.899 92.9618 164.899Z" fill="white"/>
<path d="M161.721 192.018H167.202H167.605C169.271 191.931 175.579 190.567 176.069 175.91C176.029 176.044 175.948 176.178 175.801 176.178H161.728C157.355 176.178 153.808 179.725 153.808 184.098C153.801 188.471 157.348 192.018 161.721 192.018Z" fill="#D2D2D2"/>
<path d="M167.599 192.017H175.794C184.702 192.017 191.95 184.769 191.95 175.855V163.153C191.95 158.779 188.403 155.233 184.03 155.233C179.657 155.233 176.11 158.779 176.11 163.153V174.135V175.855C176.11 175.882 176.063 175.882 176.056 175.909C175.579 190.566 169.265 191.923 167.599 192.017Z" fill="#B2B2B2"/>
<path d="M191.91 59.079V54.3701V54.0275C191.836 52.5967 190.668 47.1758 178.079 46.7593C178.193 46.7929 178.314 46.86 178.314 46.9876V59.079C178.314 62.834 181.357 65.8771 185.112 65.8771C188.867 65.8838 191.91 62.834 191.91 59.079Z" fill="#B2B2B2"/>
<path d="M191.91 54.0279V46.988C191.91 39.3369 185.683 33.1099 178.032 33.1099H167.123C163.368 33.1099 160.324 36.1529 160.324 39.9079C160.324 43.6629 163.368 46.7059 167.123 46.7059H176.56H178.038C178.065 46.7059 178.058 46.7462 178.085 46.7529C190.667 47.1761 191.836 52.6038 191.91 54.0279Z" fill="#D2D2D2"/>
<path d="M69.9345 198.204V147.655C69.9345 147.655 69.9076 139.225 69.9076 134.045C69.9076 122.028 60.1405 112.281 48.0828 112.281H26.8692C14.8181 112.281 4.20457 120.705 4.16427 134.361C4.13068 146.876 14.3344 155.225 25.9556 155.709V198.197C25.9556 223.024 45.6443 243.15 69.9278 243.15H113.9C89.6233 243.156 69.9345 223.024 69.9345 198.204Z" fill="#B2B2B2"/>
</g>
<path d="M229.475 4C230.304 4 231.099 4.32924 231.685 4.91529C232.271 5.50134 232.6 6.2962 232.6 7.125V25.875H251.35C252.179 25.875 252.974 26.2042 253.56 26.7903C254.146 27.3763 254.475 28.1712 254.475 29C254.475 29.8288 254.146 30.6237 253.56 31.2097C252.974 31.7958 252.179 32.125 251.35 32.125H232.6V50.875C232.6 51.7038 232.271 52.4987 231.685 53.0847C231.099 53.6708 230.304 54 229.475 54C228.646 54 227.851 53.6708 227.265 53.0847C226.679 52.4987 226.35 51.7038 226.35 50.875V32.125H207.6C206.771 32.125 205.976 31.7958 205.39 31.2097C204.804 30.6237 204.475 29.8288 204.475 29C204.475 28.1712 204.804 27.3763 205.39 26.7903C205.976 26.2042 206.771 25.875 207.6 25.875H226.35V7.125C226.35 6.2962 226.679 5.50134 227.265 4.91529C227.851 4.32924 228.646 4 229.475 4Z" fill="#D9D9D9"/>
</svg>
