<svg width="63" height="80" viewBox="0 0 63 80" fill="none" xmlns="http://www.w3.org/2000/svg">
<path d="M25.7911 0C12.6744 0 2 10.672 2 23.7911C2 36.9101 12.6744 47.5798 25.7911 47.5798C38.9077 47.5798 49.5821 36.9077 49.5821 23.7887C49.5821 10.6697 38.9101 0 25.7911 0ZM25.7911 43.9315C14.6851 43.9315 5.65066 34.897 5.65066 23.7911C5.65066 12.6851 14.6851 3.65065 25.7911 3.65065C36.897 3.65065 45.9314 12.6851 45.9314 23.7911C45.9314 34.897 36.897 43.9315 25.7911 43.9315Z" fill="url(#paint0_linear_3490_22246)"/>
<path d="M25.7912 7.15894C16.6214 7.15894 9.15918 14.6189 9.15918 23.791C9.15918 32.9631 16.6191 40.423 25.7912 40.423C34.961 40.423 42.4233 32.9631 42.4233 23.791C42.4233 14.6189 34.9634 7.15894 25.7912 7.15894ZM25.7912 33.404C20.489 33.404 16.1759 29.0908 16.1759 23.7886C16.1759 22.7996 16.3275 21.8432 16.6051 20.9451C15.5717 20.082 14.9116 18.785 14.9116 17.3318C14.9116 14.7355 17.0157 12.6291 19.6143 12.6291C21.1422 12.6291 22.4975 13.3569 23.3559 14.4859C24.1327 14.283 24.9491 14.1733 25.7889 14.1733C31.0911 14.1733 35.4042 18.4865 35.4042 23.7886C35.4042 29.0908 31.0934 33.404 25.7912 33.404Z" fill="url(#paint1_linear_3490_22246)"/>
<path d="M19.6166 22.0347C18.7395 22.0347 17.9161 21.7921 17.2139 21.3746C16.997 22.142 16.8804 22.9515 16.8804 23.7889C16.8804 28.7109 20.8716 32.7021 25.7936 32.7021C30.7155 32.7021 34.7067 28.7109 34.7067 23.7889C34.7067 18.867 30.7155 14.8757 25.7936 14.8757C25.0937 14.8757 24.4149 14.9597 23.7618 15.1113C24.1164 15.7738 24.3193 16.5296 24.3193 17.332C24.3193 19.9307 22.2129 22.0347 19.6166 22.0347ZM25.7912 22.3543C26.5843 22.3543 27.2258 22.9958 27.2258 23.7889C27.2258 24.582 26.5843 25.2235 25.7912 25.2235C24.9981 25.2235 24.3566 24.582 24.3566 23.7889C24.3566 22.9981 25.0004 22.3543 25.7912 22.3543Z" fill="url(#paint2_linear_3490_22246)"/>
<path d="M52.1528 21.5795H44.8935C44.8842 21.5795 44.8748 21.5795 44.8655 21.5795C44.8585 21.5795 38.0937 21.5725 38.0937 21.5725C34.4431 21.5725 31.028 23.4433 31.014 28.4586C31.0024 32.6971 33.678 35.3377 37.6692 35.3657C37.7415 35.3727 37.8138 35.3773 37.8885 35.382V42.2191C37.3706 42.2658 36.8481 42.2914 36.3162 42.2914H24.0043C24.0043 42.2588 24.0043 42.2261 24.0043 42.1958C24.0043 38.4122 20.9298 35.347 17.1346 35.347H10.4584C6.66547 35.347 3.32506 37.9969 3.31107 42.2984C3.2994 46.2383 6.51385 48.8649 10.1692 49.0189V62.3922C10.1692 70.2067 16.3648 76.5422 24.009 76.5422H37.8488C30.2046 76.5422 24.009 70.2067 24.009 62.3922V56.1242H36.3116C44.8189 56.1242 51.7143 49.931 51.7143 42.2914V40.8871C51.7353 40.6702 51.7469 40.4533 51.7469 40.2317V35.403H52.1482C55.9644 35.403 59.0576 32.3099 59.0576 28.4936C59.0646 24.6726 55.9691 21.5795 52.1528 21.5795Z" fill="url(#paint3_linear_3490_22246)" stroke="white" stroke-width="5" stroke-miterlimit="10"/>
<path d="M52.153 21.5795H38.3738C34.5575 21.5795 31.4644 24.6726 31.4644 28.4889C31.4644 32.3052 34.5575 35.3983 38.3738 35.3983H52.153C55.9692 35.3983 59.0624 32.3052 59.0624 28.4889C59.0647 24.6726 55.9692 21.5795 52.153 21.5795Z" fill="url(#paint4_linear_3490_22246)"/>
<path d="M51.7542 28.4679C51.7542 25.6104 50.0094 23.1564 47.5204 22.1114C46.6899 21.7615 45.8245 21.5795 44.8681 21.5795C44.8611 21.5795 38.0963 21.5725 38.0963 21.5725C34.4457 21.5725 31.0306 23.4433 31.0166 28.4586C31.005 32.7181 33.7085 35.368 37.7371 35.368H37.8911V43.5511C44.005 50.4815 51.7542 46.2593 51.7542 40.2317V28.4749V28.4726V28.4679Z" fill="url(#paint5_linear_3490_22246)"/>
<path d="M36.3164 42.2892H10.23V56.1221H36.3187C44.826 56.1221 51.7215 49.9288 51.7215 42.2892V28.4564C51.7215 36.096 44.8237 42.2892 36.3164 42.2892Z" fill="url(#paint6_linear_3490_22246)"/>
<path d="M31.2614 51.9044C32.7636 51.9044 33.9813 50.6867 33.9813 49.1845C33.9813 47.6823 32.7636 46.4646 31.2614 46.4646C29.7592 46.4646 28.5415 47.6823 28.5415 49.1845C28.5415 50.6867 29.7592 51.9044 31.2614 51.9044Z" fill="white"/>
<path d="M52.9065 60.4401H54.6327H54.7586C55.2835 60.4122 57.2686 59.9853 57.4225 55.3712C57.4109 55.4132 57.3852 55.4552 57.3386 55.4552H52.9088C51.5325 55.4552 50.4175 56.5702 50.4175 57.9465C50.4175 59.3228 51.5302 60.4401 52.9065 60.4401Z" fill="url(#paint7_linear_3490_22246)"/>
<path d="M54.7563 60.4399H57.3363C60.1402 60.4399 62.4215 58.1585 62.4215 55.3523V51.3541C62.4215 49.9778 61.3065 48.8628 59.9302 48.8628C58.5539 48.8628 57.4389 49.9778 57.4389 51.3541V54.8111V55.3523C57.4389 55.3617 57.4249 55.3617 57.4226 55.3687C57.2686 59.985 55.2812 60.4119 54.7563 60.4399Z" fill="url(#paint8_linear_3490_22246)"/>
<path d="M62.4093 18.5959V17.1147V17.0074C62.386 16.5572 62.0174 14.8496 58.0542 14.719C58.0915 14.7283 58.1265 14.7517 58.1265 14.7913V18.5983C58.1265 19.7809 59.0853 20.7397 60.2679 20.7397C61.4506 20.7397 62.4093 19.7786 62.4093 18.5959Z" fill="url(#paint9_linear_3490_22246)"/>
<path d="M62.4096 17.0077V14.7916C62.4096 12.3819 60.4501 10.4225 58.0405 10.4225H54.6067C53.4241 10.4225 52.4653 11.3812 52.4653 12.5639C52.4653 13.7466 53.4241 14.7053 54.6067 14.7053H57.5763H58.0405C58.0475 14.7053 58.0474 14.717 58.0544 14.7193C62.0177 14.8499 62.3839 16.5574 62.4096 17.0077Z" fill="url(#paint10_linear_3490_22246)"/>
<path d="M24.0138 62.3876V46.4763C24.0138 46.4763 24.0067 43.8217 24.0067 42.1912C24.0067 38.4076 20.9323 35.3424 17.137 35.3424H10.4609C6.66791 35.3424 3.3275 37.9923 3.31351 42.2938C3.30184 46.2337 6.51629 48.8603 10.1716 49.0143V62.3876C10.1716 70.2021 16.3695 76.5376 24.0114 76.5376H37.8512C30.2117 76.5376 24.0138 70.2021 24.0138 62.3876Z" fill="url(#paint11_linear_3490_22246)"/>
<defs>
<linearGradient id="paint0_linear_3490_22246" x1="2.00219" y1="23.7898" x2="49.5821" y2="23.7898" gradientUnits="userSpaceOnUse">
<stop stop-color="#2B2B65"/>
<stop offset="1" stop-color="#1D70B6"/>
</linearGradient>
<linearGradient id="paint1_linear_3490_22246" x1="9.16039" y1="23.7897" x2="42.4243" y2="23.7897" gradientUnits="userSpaceOnUse">
<stop stop-color="#2B2B65"/>
<stop offset="1" stop-color="#1D70B6"/>
</linearGradient>
<linearGradient id="paint2_linear_3490_22246" x1="16.8799" y1="23.79" x2="34.7048" y2="23.79" gradientUnits="userSpaceOnUse">
<stop stop-color="#2B2B65"/>
<stop offset="1" stop-color="#1D70B6"/>
</linearGradient>
<linearGradient id="paint3_linear_3490_22246" x1="31.189" y1="67.751" x2="31.189" y2="24.5904" gradientUnits="userSpaceOnUse">
<stop stop-color="#006633"/>
<stop offset="1" stop-color="#92BF1F"/>
</linearGradient>
<linearGradient id="paint4_linear_3490_22246" x1="31.4638" y1="28.4891" x2="59.0641" y2="28.4891" gradientUnits="userSpaceOnUse">
<stop stop-color="#2B2B65"/>
<stop offset="1" stop-color="#35A7DF"/>
</linearGradient>
<linearGradient id="paint5_linear_3490_22246" x1="31.0162" y1="34.3524" x2="51.7533" y2="34.3524" gradientUnits="userSpaceOnUse">
<stop stop-color="#2B2B65"/>
<stop offset="1" stop-color="#1D70B6"/>
</linearGradient>
<linearGradient id="paint6_linear_3490_22246" x1="10.2297" y1="42.2884" x2="51.7211" y2="42.2884" gradientUnits="userSpaceOnUse">
<stop stop-color="#2B2B65"/>
<stop offset="1" stop-color="#35A7DF"/>
</linearGradient>
<linearGradient id="paint7_linear_3490_22246" x1="57.2768" y1="58.4776" x2="50.4816" y2="56.7656" gradientUnits="userSpaceOnUse">
<stop stop-color="#2B2B65"/>
<stop offset="1" stop-color="#1D70B6"/>
</linearGradient>
<linearGradient id="paint8_linear_3490_22246" x1="60.4577" y1="52.5294" x2="57.1801" y2="59.4589" gradientUnits="userSpaceOnUse">
<stop stop-color="#2B2B65"/>
<stop offset="1" stop-color="#1D70B6"/>
</linearGradient>
<linearGradient id="paint9_linear_3490_22246" x1="60.7222" y1="14.8419" x2="59.2517" y2="20.6789" gradientUnits="userSpaceOnUse">
<stop stop-color="#2B2B65"/>
<stop offset="1" stop-color="#1D70B6"/>
</linearGradient>
<linearGradient id="paint10_linear_3490_22246" x1="55.6133" y1="12.1099" x2="61.5657" y2="14.9253" gradientUnits="userSpaceOnUse">
<stop stop-color="#2B2B65"/>
<stop offset="1" stop-color="#1D70B6"/>
</linearGradient>
<linearGradient id="paint11_linear_3490_22246" x1="20.5844" y1="69.9524" x2="20.5844" y2="37.6057" gradientUnits="userSpaceOnUse">
<stop stop-color="#006633"/>
<stop offset="1" stop-color="#92BF1F"/>
</linearGradient>
</defs>
</svg>
