<svg width="168" height="43" viewBox="0 0 168 43" fill="none" xmlns="http://www.w3.org/2000/svg">
<path d="M32.7386 16.8685C30.2679 15.7619 26.9195 18.6906 17.628 25.4016C9.53368 31.2494 9.28566 35.0127 9.3572 35.8904C10.688 36.5868 12.1284 37.1067 13.6452 37.4119C14.9045 32.9665 17.7949 31.4259 17.7949 31.4259L18.8872 29.3606L25.3741 25.5734L30.4825 22.1868C30.4825 22.1868 32.3952 20.6176 33.2013 19.1294C33.1012 18.3567 32.9437 17.6031 32.7386 16.8685Z" fill="#70706F"/>
<path d="M31.2315 13.2578C30.6734 12.2752 30.02 11.3546 29.2807 10.5104C17.3085 12.466 2.79887 27.839 3.99131 31.4211C4.19164 31.6739 4.39674 31.9267 4.61138 32.1652C6.14248 33.6247 8.53214 33.6152 9.56241 30.4767C10.7453 26.8803 29.3951 14.4931 29.3951 14.4931C29.3951 14.4931 30.2537 13.9637 31.2315 13.2578Z" fill="#70706F"/>
<path d="M0.585693 19.9021C1.14853 18.9958 5.37455 12.3372 8.89941 10.3053C12.6866 8.12552 9.23807 8.69312 9.23807 8.69312L7.20137 8.11121C3.5048 10.8347 1.00066 15.0703 0.585693 19.9021Z" fill="#70706F"/>
<path d="M25.5887 7.37664C24.2198 6.52285 22.7126 5.86939 21.1099 5.44965C21.1052 5.45442 21.1004 5.45442 21.0956 5.45918C3.65254 14.5504 0.733435 23.799 0.714355 23.8658C0.871758 24.8913 1.12933 25.8834 1.46798 26.8373C2.14052 27.1474 2.93707 27.0663 3.56191 25.6353C4.88314 22.5922 12.1714 16.9639 12.1714 16.9639L24.8017 8.06825C24.8017 8.06825 25.1165 7.79638 25.5887 7.37664Z" fill="#70706F"/>
<path d="M20.9621 34.9364C20.9621 34.9364 11.3987 15.1656 8.89936 10.3052C7.47797 7.82019 7.21086 8.16361 7.18701 8.11591C8.0408 8.08729 11.0935 7.97282 12.4672 8.08729C12.7295 8.11114 12.9632 8.25901 13.0968 8.48318L14.0173 10.0477C14.0507 10.1001 14.0793 10.1574 14.108 10.2146L24.3677 31.5307C24.8638 32.7232 25.336 33.5197 20.9621 34.9364Z" fill="#F49925"/>
<path d="M23.0464 33.6915C17.9714 37.5694 9.67673 35.9572 9.3667 35.8952C11.6323 37.0733 14.2033 37.7458 16.9316 37.7458C18.3959 37.7458 19.8173 37.5503 21.1671 37.1925C21.2816 37.1067 25.4647 33.9491 24.568 32.0507C24.215 32.8759 23.18 33.5914 23.0464 33.6915Z" fill="#EB6C18"/>
<path d="M26.8289 8.22568C25.1977 6.99031 23.3279 6.0602 21.3008 5.50214C21.7777 5.74063 22.2738 6.81383 14.6374 11.6265C5.29339 17.5172 1.50141 15.8001 2.00701 14.4932C1.20569 16.2437 0.700091 18.1564 0.561768 20.174C0.805026 20.6986 2.36474 22.2584 12.3431 17.7128C23.9337 12.4326 26.7908 9.87602 26.8289 8.22568Z" fill="#EB6C18"/>
<path d="M0.695312 23.7227C0.95288 25.4732 1.48233 27.1283 2.24549 28.6546C20.0463 26.9136 31.7895 14.5408 31.8563 14.4693C31.1885 13.024 30.3204 11.6933 29.2854 10.5104C15.2336 22.8736 4.3585 23.6893 1.47279 23.8848C0.614226 23.9421 0.776399 23.6845 0.776399 23.6845C0.776399 23.6845 0.74778 23.6988 0.695312 23.7227Z" fill="#EB6C18"/>
<path d="M32.7386 16.878C32.6432 16.9782 32.5478 17.0783 32.4524 17.1737C32.3284 17.3025 32.1997 17.4313 32.0756 17.5601C20.6997 28.9694 4.22014 31.402 4.00073 31.4306C4.9213 32.6087 5.99927 33.6581 7.20125 34.5452C24.7206 32.2081 33.3253 22.1963 33.3301 22.1868C33.3444 21.9006 33.3539 21.6144 33.3539 21.3234C33.3539 19.7828 33.1345 18.2946 32.7386 16.878Z" fill="#EB6C18"/>
<path d="M45.3881 20.5556V8.20184H43.3943V6.03159H47.9637V20.5556H45.3881ZM46.7999 0.536804C47.2435 0.536804 47.6203 0.694208 47.9303 1.00424C48.2404 1.31428 48.3978 1.69109 48.3978 2.12514C48.3978 2.56873 48.2404 2.94554 47.9303 3.25558C47.6203 3.56561 47.2387 3.72302 46.7999 3.72302C46.3659 3.72302 45.9938 3.56561 45.679 3.25558C45.3642 2.94554 45.2116 2.56396 45.2116 2.12514C45.2116 1.68155 45.3642 1.30951 45.6742 0.999473C45.9795 0.694207 46.3563 0.536804 46.7999 0.536804Z" fill="#6D6D6D"/>
<path d="M60.9948 20.5556V12.1035C60.9948 10.5581 60.7611 9.47536 60.2984 8.85529C59.831 8.23522 59.0535 7.92518 57.9613 7.92518C57.3746 7.92518 56.7593 8.10166 56.1153 8.45463C55.4714 8.80759 54.9801 9.24164 54.6367 9.75678V20.5508H52.061V6.03158H53.8259L54.6415 7.90133C55.4905 6.47517 56.8785 5.7597 58.8055 5.7597C61.9869 5.7597 63.58 7.69623 63.58 11.5645V20.5556H60.9948Z" fill="#6D6D6D"/>
<path d="M76.1723 20.5556V12.1035C76.1723 10.5581 75.9386 9.47536 75.4759 8.85529C75.0085 8.23522 74.231 7.92518 73.1387 7.92518C72.5521 7.92518 71.9368 8.10166 71.2928 8.45463C70.6489 8.80759 70.1576 9.24164 69.8142 9.75678V20.5508H67.2385V6.03158H69.0033L69.819 7.90133C70.668 6.47517 72.056 5.7597 73.983 5.7597C77.1644 5.7597 78.7575 7.69623 78.7575 11.5645V20.5556H76.1723Z" fill="#6D6D6D"/>
<path d="M94.6409 13.544H84.1713C84.1713 15.242 84.6387 16.5489 85.5688 17.4647C86.3892 18.2613 87.4481 18.6572 88.7407 18.6572C90.2146 18.6572 91.4452 18.2279 92.4278 17.3693L93.5105 19.2296C93.1146 19.6254 92.5041 19.9689 91.6789 20.2598C90.6486 20.6414 89.4991 20.8274 88.2351 20.8274C86.4083 20.8274 84.8581 20.2074 83.5846 18.9672C82.1632 17.6031 81.4573 15.7667 81.4573 13.4629C81.4573 11.0685 82.1871 9.14625 83.6418 7.701C84.944 6.40839 86.4846 5.7597 88.2685 5.7597C90.3386 5.7597 91.9603 6.34162 93.1385 7.51021C94.2784 8.63111 94.846 10.1193 94.846 11.97C94.846 12.5423 94.7793 13.067 94.6409 13.544ZM88.3925 7.92995C87.243 7.92995 86.2795 8.302 85.502 9.04131C84.758 9.74724 84.3382 10.6249 84.2428 11.6695H92.2847C92.2847 10.6296 91.9603 9.76155 91.3069 9.06516C90.5914 8.30676 89.6184 7.92995 88.3925 7.92995Z" fill="#6D6D6D"/>
<path d="M105.449 8.51187C104.886 8.12074 104.323 7.92995 103.756 7.92995C102.845 7.92995 102.044 8.34969 101.361 9.18917C100.679 10.0287 100.336 11.0446 100.336 12.2275V20.5556H97.7603V6.03158H100.336V8.34969C101.276 6.62303 102.673 5.7597 104.524 5.7597C104.986 5.7597 105.649 5.84079 106.518 6.00296L105.449 8.51187Z" fill="#6D6D6D"/>
<path d="M55.0995 23.4126L53.8259 25.2299C53.5636 24.9676 53.1009 24.7196 52.4379 24.4858C51.7749 24.2521 51.1215 24.1329 50.4775 24.1329C49.0752 24.1329 47.9639 24.6242 47.1435 25.6067C46.3231 26.5893 45.9081 27.9344 45.9081 29.642C45.9081 31.34 46.3278 32.6374 47.1673 33.5293C48.0068 34.4213 49.1754 34.8649 50.6683 34.8649C51.8274 34.8649 52.9912 34.4165 54.1694 33.5246L55.1853 35.6948C53.8021 36.5915 52.0897 37.0351 50.0435 37.0351C48.064 37.0351 46.428 36.3721 45.1354 35.0414C43.8428 33.7106 43.1941 31.9124 43.1941 29.6467C43.1941 27.3334 43.8666 25.4732 45.2069 24.0709C46.552 22.6686 48.3884 21.9674 50.7208 21.9674C51.4697 21.9674 52.2853 22.1248 53.1629 22.4444C54.0358 22.7544 54.6797 23.0788 55.0995 23.4126Z" fill="#EB6C18"/>
<path d="M56.9404 29.4607C56.9404 27.2189 57.5462 25.4064 58.7529 24.0279C59.9597 22.6494 61.548 21.9578 63.5179 21.9578C65.5976 21.9578 67.2098 22.6208 68.3593 23.9468C69.5088 25.2728 70.0812 27.1092 70.0812 29.4607C70.0812 31.8026 69.4945 33.6485 68.3163 34.9984C67.143 36.3482 65.5403 37.0255 63.5132 37.0255C61.4431 37.0255 59.8309 36.3435 58.6719 34.9793C57.5223 33.6152 56.9404 31.774 56.9404 29.4607ZM59.6544 29.4607C59.6544 33.1048 60.9423 34.9268 63.5179 34.9268C64.7199 34.9268 65.6644 34.4403 66.3464 33.4625C67.0285 32.4847 67.3719 31.154 67.3719 29.4607C67.3719 25.8643 66.0889 24.0613 63.5179 24.0613C62.3446 24.0613 61.4049 24.543 60.7038 25.497C60.0026 26.4605 59.6544 27.7769 59.6544 29.4607Z" fill="#EB6C18"/>
<path d="M81.7338 36.7584V28.3064C81.7338 26.761 81.5001 25.6783 81.0374 25.0582C80.57 24.4381 79.7925 24.1281 78.7003 24.1281C78.1136 24.1281 77.4983 24.3046 76.8544 24.6575C76.2104 25.0105 75.7191 25.4445 75.3757 25.9597V36.7584H72.8V22.2297H74.5649L75.3805 24.0995C76.2295 22.6733 77.6175 21.9578 79.5445 21.9578C82.726 21.9578 84.3191 23.8944 84.3191 27.7626V36.7584H81.7338Z" fill="#EB6C18"/>
<path d="M87.0188 35.8903L87.9251 33.4482C89.3608 34.3879 90.5198 34.8601 91.3975 34.8601C92.9906 34.8601 93.7871 34.1923 93.7871 32.852C93.7871 31.8933 93.0192 31.0729 91.4833 30.386C90.3004 29.8423 89.4991 29.4321 89.0889 29.1506C88.6787 28.8692 88.3209 28.5496 88.0157 28.1967C87.7104 27.839 87.4862 27.4574 87.3384 27.0567C87.1905 26.656 87.1142 26.222 87.1142 25.7593C87.1142 24.5669 87.5482 23.6368 88.4163 22.9642C89.2844 22.2965 90.4196 21.9626 91.822 21.9626C92.8809 21.9626 94.2116 22.2965 95.8238 22.9642L95.094 25.3491C94.0733 24.5335 93.0478 24.1281 92.0175 24.1281C91.4022 24.1281 90.8871 24.2712 90.4673 24.5621C90.0476 24.8531 89.8377 25.2203 89.8377 25.6592C89.8377 26.5893 90.3672 27.2952 91.4261 27.7769L93.272 28.6164C94.4024 29.1316 95.2228 29.7182 95.738 30.3812C96.2531 31.0442 96.5107 31.8694 96.5107 32.8615C96.5107 34.1637 96.0528 35.1844 95.1417 35.919C94.2307 36.6583 92.9619 37.0255 91.345 37.0255C89.8043 37.0255 88.3686 36.6487 87.0188 35.8903Z" fill="#EB6C18"/>
<path d="M101.652 22.2297V31.4926C101.652 33.7344 102.625 34.8553 104.567 34.8553C105.416 34.8553 106.193 34.612 106.899 34.1255C107.605 33.639 108.068 33.0714 108.297 32.4322V22.2297H110.872V36.7584H108.297V34.7503C108.006 35.3179 107.429 35.8426 106.556 36.3148C105.683 36.7918 104.834 37.0255 103.999 37.0255C102.406 37.0255 101.19 36.5676 100.345 35.6566C99.5012 34.7456 99.0767 33.4482 99.0767 31.7645V22.2297H101.652Z" fill="#EB6C18"/>
<path d="M114.593 32.6469V16.277H117.168V32.2129C117.168 32.9903 117.393 33.6009 117.841 34.0492C118.289 34.4976 118.876 34.7218 119.596 34.7218V37.0256C116.257 37.0256 114.593 35.566 114.593 32.6469Z" fill="#EB6C18"/>
<path d="M123.503 24.2664H121.819V22.2297H123.503V19.1914L126.078 18.204V22.2297H130.066V24.2664H126.078V31.4831C126.078 32.7042 126.284 33.5723 126.694 34.0874C127.104 34.6025 127.767 34.8601 128.683 34.8601C129.341 34.8601 130.023 34.6932 130.729 34.3593L131.111 36.6249C130.042 36.8968 128.874 37.0304 127.6 37.0304C126.451 37.0304 125.482 36.6058 124.69 35.7473C123.899 34.8935 123.503 33.8155 123.503 32.5134V24.2664Z" fill="#EB6C18"/>
<path d="M134.84 36.7584V24.4047H132.847V22.2345H137.416V36.7584H134.84ZM136.248 16.7397C136.691 16.7397 137.068 16.8971 137.378 17.2071C137.688 17.5172 137.845 17.894 137.845 18.328C137.845 18.7716 137.688 19.1484 137.378 19.4585C137.068 19.7685 136.686 19.9259 136.248 19.9259C135.813 19.9259 135.441 19.7685 135.127 19.4585C134.817 19.1484 134.659 18.7668 134.659 18.328C134.659 17.8892 134.812 17.5124 135.122 17.2024C135.432 16.8923 135.804 16.7397 136.248 16.7397Z" fill="#EB6C18"/>
<path d="M150.447 36.7584V28.3064C150.447 26.761 150.214 25.6783 149.751 25.0582C149.283 24.4381 148.506 24.1281 147.414 24.1281C146.827 24.1281 146.212 24.3046 145.568 24.6575C144.924 25.0105 144.433 25.4445 144.089 25.9597V36.7584H141.513V22.2297H143.278L144.094 24.0995C144.943 22.6733 146.331 21.9578 148.258 21.9578C151.439 21.9578 153.032 23.8944 153.032 27.7626V36.7584H150.447Z" fill="#EB6C18"/>
<path d="M156.157 40.7316L157.554 38.6711C159.057 39.6727 160.44 40.1783 161.704 40.1783C162.868 40.1783 163.788 39.978 164.466 39.5726C165.138 39.1719 165.477 38.6711 165.477 38.0749C165.477 36.9015 164.628 36.31 162.93 36.31C162.639 36.31 162.114 36.3816 161.356 36.5294C160.597 36.6725 160.006 36.7441 159.581 36.7441C157.521 36.7441 156.491 35.9666 156.491 34.4117C156.491 33.9347 156.734 33.5006 157.216 33.1095C157.697 32.7184 158.298 32.4417 159.014 32.27C156.972 31.3113 155.947 29.6467 155.947 27.2809C155.947 25.7641 156.476 24.4953 157.535 23.4841C158.594 22.4729 159.901 21.9673 161.456 21.9673C162.882 21.9673 163.998 22.263 164.804 22.8497L166.092 21.3043L167.776 22.8927L166.23 24.0565C166.889 24.915 167.223 26.0359 167.223 27.4192C167.223 28.8835 166.765 30.1141 165.854 31.1062C164.943 32.0983 163.741 32.6707 162.257 32.8138L160.13 33.0284C159.877 33.0571 159.538 33.1524 159.114 33.3194C158.689 33.4863 158.475 33.7057 158.475 33.9776C158.475 34.3497 158.918 34.5357 159.806 34.5357C160.192 34.5357 160.798 34.4641 161.623 34.3258C162.443 34.1875 163.054 34.1159 163.454 34.1159C164.881 34.1159 165.997 34.4594 166.798 35.1414C167.599 35.8235 168 36.7727 168 37.9842C168 39.3198 167.399 40.4025 166.202 41.2277C165.005 42.0481 163.488 42.4631 161.651 42.4631C160.712 42.4631 159.72 42.2961 158.68 41.9622C157.626 41.614 156.791 41.2086 156.157 40.7316ZM161.623 24.0374C160.726 24.0374 159.996 24.3522 159.433 24.9866C158.871 25.621 158.584 26.3889 158.584 27.2904C158.584 28.3016 158.856 29.1411 159.405 29.8041C159.953 30.4671 160.693 30.8009 161.623 30.8009C162.534 30.8009 163.249 30.4766 163.764 29.8327C164.28 29.184 164.537 28.3397 164.537 27.2904C164.537 26.3889 164.261 25.6162 163.702 24.9866C163.149 24.3522 162.453 24.0374 161.623 24.0374Z" fill="#EB6C18"/>
</svg>
