<svg width="122" height="41" viewBox="0 0 122 41" fill="none" xmlns="http://www.w3.org/2000/svg">
<g clip-path="url(#clip0_3490_22114)">
<path d="M0.586426 0.5L121.538 0.5V40.5L0.586426 40.5L0.586426 0.5Z" fill="#E22319"/>
<path d="M53.2381 13.9842C51.4106 13.9842 49.4691 14.7774 48.2127 16.4771V14.3243L43.9869 14.3243V29.735L48.2127 29.735V20.8965C48.2127 19.3101 49.4691 17.6104 51.7534 17.6104C53.4666 17.6104 55.2941 18.8568 55.2941 20.8965V29.6216H59.52V20.1033C59.634 16.5905 57.0071 13.9842 53.2381 13.9842ZM89.9003 14.2109L86.0173 24.749L82.1338 14.2109H77.337L83.7329 29.6216H88.4155L94.6972 14.2109L89.9003 14.2109ZM39.4184 24.8624C37.5909 26.2222 36.5629 26.4489 34.964 26.4489C33.4793 26.4489 32.337 25.9956 31.5376 25.2025L42.3877 20.6699C42.1594 18.9702 41.474 17.497 40.5605 16.3639C39.0756 14.6642 37.0198 13.871 34.393 13.871C29.7103 13.871 26.1696 17.2705 26.1696 21.803C26.1696 26.4489 29.7103 29.7352 34.8497 29.7352C37.705 29.7352 40.6745 28.3754 42.0451 26.7888L39.4184 24.8624ZM31.195 18.8568C31.8804 17.8369 33.0222 17.2705 34.5071 17.2705C35.9918 17.2705 37.2481 18.177 37.8193 19.4235L30.3955 22.483C30.1672 21.0098 30.624 19.7634 31.195 18.8568ZM25.827 25.7689L16.1189 25.7689L16.1189 9.67841H11.7788L11.7788 29.6216L25.827 29.6216L25.827 25.7689ZM102.35 29.8482C97.6671 29.8482 94.0121 26.4489 94.0121 21.9162C94.0121 17.4968 97.6669 13.9842 102.35 13.9842C107.032 13.9842 110.687 17.3837 110.687 21.9162C110.801 26.4489 107.146 29.8482 102.35 29.8482ZM102.35 17.6104C99.951 17.6104 98.2378 19.4235 98.2378 21.9164C98.2378 24.2959 100.065 26.2224 102.35 26.2224C104.748 26.2224 106.461 24.4093 106.461 21.9164C106.575 19.5367 104.748 17.6104 102.35 17.6104ZM69.5704 29.8482C64.8879 29.8482 61.233 26.4489 61.233 21.9162C61.233 17.4968 64.8879 13.9842 69.5704 13.9842C74.2532 13.9842 77.9079 17.3837 77.9079 21.9162C77.9079 26.4487 74.2534 29.8482 69.5704 29.8482ZM69.5704 17.6104C67.172 17.6104 65.4586 19.4235 65.4586 21.9164C65.4586 24.2959 67.2861 26.2224 69.5704 26.2224C71.969 26.2224 73.6823 24.4093 73.6823 21.9164C73.7963 19.5367 71.969 17.6104 69.5704 17.6104ZM111.372 27.8085L110.687 27.8085V27.4686L112.515 27.4686V27.8085H111.829V29.6216H111.372V27.8085ZM112.971 27.4688H113.428L114.114 28.4887L114.799 27.4688H115.256V29.7352H114.799V28.1486L114.114 29.1685L113.428 28.1486V29.7352H112.971V27.4688Z" fill="white"/>
</g>
<defs>
<clipPath id="clip0_3490_22114">
<rect width="121" height="40" fill="white" transform="translate(0.561768 0.5)"/>
</clipPath>
</defs>
</svg>
