<svg width="156" height="53" viewBox="0 0 156 53" fill="none" xmlns="http://www.w3.org/2000/svg">
<path d="M141.976 36.759C141.976 33.9637 141.976 31.336 141.976 28.5407C144.8 28.5407 147.567 28.5407 150.306 28.5407C150.306 26.9753 150.306 25.5217 150.306 23.9842C147.483 23.9842 144.744 23.9842 141.976 23.9842C141.976 21.5243 141.976 19.1762 141.976 16.7722C146.505 16.7722 150.977 16.7722 155.562 16.7722C155.562 15.1509 155.562 13.6973 155.562 12.1878C149.216 12.1878 142.983 12.1878 136.609 12.1878C136.609 20.5459 136.609 28.8202 136.609 37.1504C135.799 37.2063 135.1 37.2622 134.401 37.2901C134.401 38.6599 134.401 39.9178 134.401 41.2316C141.501 41.2316 148.517 41.2316 155.562 41.2316C155.562 39.75 155.562 38.2965 155.562 36.7311C151.033 36.759 146.533 36.759 141.976 36.759Z" fill="black"/>
<path d="M126.406 26.1087C126.77 25.913 127.049 25.8012 127.329 25.6614C130.04 24.3476 131.019 22.1113 130.935 19.2041C130.851 16.3808 129.733 14.1725 127.049 13.1662C125.4 12.5512 123.555 12.1878 121.794 12.1319C117.796 11.9921 113.771 12.076 109.774 12.076C109.522 12.076 109.271 12.1039 109.019 12.1319V16.297C109.69 16.297 110.277 16.297 110.976 16.297C110.976 24.6551 110.976 32.9293 110.976 41.2036C112.793 41.2036 114.47 41.2036 116.203 41.2036C116.203 39.0512 116.203 36.9826 116.203 34.8861C116.203 32.7616 116.203 30.6372 116.203 28.4009C117.852 28.4009 119.362 28.345 120.843 28.4288C124.925 28.6525 124.925 33.3766 124.981 33.6561C125.288 35.8365 125.54 37.989 125.931 40.1693C126.015 40.5886 126.546 41.2036 126.909 41.2316C128.419 41.3434 129.928 41.2875 131.55 41.2875C130.292 37.8492 129.984 34.4388 129.872 30.9726C129.761 28.7643 128.978 26.8355 126.406 26.1087ZM125.651 20.9093C125.484 22.5865 124.254 23.7885 122.409 23.8444C120.396 23.9283 118.356 23.8724 116.259 23.8724C116.259 21.4963 116.259 19.2041 116.259 16.9399C118.551 16.9399 120.815 16.7163 123.024 16.9958C125.036 17.2474 125.847 18.7848 125.651 20.9093Z" fill="black"/>
<path d="M48.8908 39.4984C51.0432 38.4921 52.8882 37.0944 54.2859 35.0259C52.7764 34.1313 51.3787 33.2927 50.009 32.4541C45.1171 36.6751 40.6166 37.5417 36.4235 35.0818C32.6218 32.8734 30.7769 28.317 31.7273 23.5369C32.5659 19.3159 36.116 16.1013 40.5607 15.5981C44.6419 15.1509 48.779 17.3872 49.7015 19.7353C50.8476 19.7353 51.9937 19.7353 53.1957 19.7353V15.654C52.972 15.2068 52.6086 14.8434 52.1334 14.48C48.4436 11.5728 44.2505 10.6503 39.6382 11.0976C29.3792 12.076 23.1735 22.6983 27.3666 32.1466C31.1683 40.7004 41.2874 43.0485 48.8908 39.4984Z" fill="black"/>
<path d="M18.3935 24.8786C17.0796 24.4034 15.7099 24.04 14.3681 23.6207C12.2437 22.9778 10.0633 22.4187 7.96677 21.6919C6.76477 21.2726 6.12184 20.2663 6.2057 18.9245C6.2616 17.6107 6.90454 16.6603 8.10654 16.185C8.94515 15.8496 9.83966 15.6819 10.7342 15.598C13.8091 15.3744 16.3808 16.6044 18.5612 18.5332C19.847 17.3032 21.0211 16.185 22.2511 15.011C19.0923 12.2995 15.4304 10.9018 11.2653 10.9577C8.52584 10.9857 5.92616 11.6845 3.71783 13.4736C0.139768 16.3248 -0.587025 23.6207 5.36709 25.9408C6.54114 26.3881 7.74314 26.7515 8.91719 27.1429C11.2932 27.8976 13.7252 28.5685 16.0733 29.435C17.5269 29.9941 18.1698 31.2241 18.058 32.8454C17.9462 34.3828 17.1076 35.3892 15.7099 35.9482C13.5854 36.7868 11.433 36.7309 9.22468 36.2278C7.01635 35.7246 5.31118 34.3828 3.68987 32.8174C2.43196 33.9356 1.22996 34.9978 0 36.116C0.335443 36.4794 0.587025 36.7589 0.866561 37.0384C4.6962 40.4767 9.22468 41.511 14.2004 40.9799C16.4926 40.7562 18.5891 39.9456 20.4341 38.4641C23.9842 35.501 25.1303 27.3665 18.3935 24.8786Z" fill="black"/>
<path d="M94.9864 45.8718C94.5391 45.8159 94.1198 45.6482 93.8123 45.2848C93.2532 44.9773 92.7221 44.6418 92.191 44.3064C90.0386 45.6482 87.6346 46.6265 85.0628 47.1297C84.5876 49.1144 83.9167 51.0432 83.0781 52.9161C88.6688 52.4968 93.7564 50.3444 97.8376 46.9899C97.1667 46.7384 96.4679 46.4588 95.797 46.2072C95.5175 46.0954 95.2379 45.9836 94.9864 45.8718Z" fill="#C81837"/>
<path d="M98.2568 38.52C99.2911 40.2811 100.186 42.0981 100.884 44.0269C104.518 39.8897 106.894 34.6345 107.426 28.8201C105.553 29.7706 103.596 30.4973 101.555 31.0005C100.968 33.7679 99.8222 36.3117 98.2568 38.52Z" fill="#9A1764"/>
<path d="M98.5085 14.8154C100.102 17.1914 101.192 19.9029 101.723 22.8101C102.422 23.0058 103.121 23.2294 103.82 23.481C105.05 23.9283 106.28 24.4035 107.482 24.9625C107.146 18.9246 104.77 13.4177 101.052 9.14081C100.381 11.0976 99.5428 12.9984 98.5085 14.8154Z" fill="#263677"/>
<path d="M76.6768 5.89821C77.2079 3.88555 77.9347 1.95675 78.8571 0.0559082C72.9589 0.531119 67.5918 2.93513 63.4268 6.65295C65.3556 7.32384 67.2284 8.16245 68.9895 9.22468C71.2538 7.65928 73.8534 6.51319 76.6768 5.89821Z" fill="#02935F"/>
<path d="M60.3239 22.7542C60.7991 20.0707 61.8054 17.5548 63.2031 15.3465C62.1409 13.5575 61.2463 11.6566 60.5475 9.69989C57.1092 13.865 54.9288 19.1202 54.5654 24.8507C55.5438 24.4035 56.5781 23.9842 57.5844 23.6208C58.5069 23.2294 59.4014 22.9778 60.3239 22.7542Z" fill="#B5C412"/>
<path d="M92.8617 9.11287C94.6508 8.07859 96.5237 7.23998 98.5084 6.56909C94.2035 2.76741 88.6408 0.363397 82.5469 0.0279541C83.4693 1.84494 84.1961 3.77373 84.7552 5.78639C87.7183 6.31751 90.4577 7.46361 92.8617 9.11287Z" fill="#106AB1"/>
<path d="M60.5194 31.2242C58.5068 30.749 56.55 30.0502 54.6492 29.1836C55.2082 34.6904 57.4445 39.6941 60.8549 43.6915C61.5537 41.7627 62.4482 39.9457 63.5384 38.1846C62.1407 36.0881 61.1064 33.74 60.5194 31.2242Z" fill="#F7A521"/>
<path d="M69.6323 44.1946C68.626 44.8096 67.5638 45.3966 66.5015 45.9557C65.7188 46.347 64.9361 46.6545 64.1255 46.962C68.0949 50.2605 73.0706 52.4129 78.4936 52.9161C77.6271 51.0432 76.9841 49.1144 76.481 47.0738C74.0211 46.4868 71.7009 45.5084 69.6323 44.1946Z" fill="#D63420"/>
<path d="M81.0094 47.521C79.5559 47.521 78.1302 47.3813 76.7605 47.1017C77.2357 49.0865 77.9346 51.0152 78.8011 52.9161C79.5279 52.972 80.2547 53 81.0094 53C81.5965 53 82.1835 52.972 82.7705 52.944C83.6091 51.0991 84.28 49.1703 84.7552 47.1856C83.5532 47.4092 82.2953 47.521 81.0094 47.521Z" fill="#B41D1D"/>
<path d="M84.7552 47.1856C84.28 49.1703 83.6091 51.0712 82.7705 52.944C82.8823 52.944 82.9662 52.944 83.078 52.9161C83.9166 51.0432 84.5875 49.1144 85.0627 47.1297C84.9509 47.1577 84.867 47.1856 84.7552 47.1856Z" fill="#B41D1D"/>
<path d="M76.509 47.0459C76.9842 49.0586 77.6551 51.0153 78.5217 52.8882C78.6335 52.8882 78.7174 52.9162 78.8292 52.9162C77.9347 51.0433 77.2638 49.1145 76.7886 47.1018C76.6768 47.0739 76.5929 47.0459 76.509 47.0459Z" fill="#B41D1D"/>
<path d="M92.3867 44.1947C92.8899 44.5022 93.393 44.8376 93.9242 45.1171C94.036 45.2289 94.1478 45.3128 94.2876 45.3687C94.4273 45.3967 94.5391 45.4526 94.651 45.5364C94.8187 45.5923 94.9584 45.6482 95.1262 45.6762C96.0766 46.0676 97.055 46.4589 98.0333 46.7943C98.9558 46.0116 99.8503 45.173 100.661 44.2506C99.9901 42.3218 99.1235 40.4768 98.0892 38.7437C96.5798 40.8961 94.623 42.7411 92.3867 44.1947Z" fill="#7F1824"/>
<path d="M93.8123 45.2848C93.9801 45.2848 94.1478 45.3127 94.2876 45.3686C94.1757 45.2848 94.036 45.2009 93.9242 45.117C93.421 44.8096 92.8899 44.5021 92.3867 44.1946C92.3029 44.2505 92.2469 44.2784 92.1631 44.3343C92.7222 44.6698 93.2533 44.9773 93.8123 45.2848Z" fill="#7F1824"/>
<path d="M94.6509 45.5364C94.7627 45.6203 94.8745 45.7321 94.9863 45.8719C95.2659 45.9837 95.5174 46.0955 95.797 46.1794C96.4679 46.4589 97.1667 46.7105 97.8376 46.9621C97.9215 46.9062 98.0053 46.8223 98.0612 46.7664C97.0828 46.431 96.1045 46.0676 95.154 45.6483C94.9584 45.6483 94.8186 45.6203 94.6509 45.5364Z" fill="#7F1824"/>
<path d="M98.1172 38.7436C99.1515 40.4768 100.018 42.3217 100.689 44.2505C100.745 44.1666 100.829 44.1107 100.885 44.0269C100.186 42.126 99.2912 40.2811 98.257 38.52C98.229 38.6039 98.1731 38.6598 98.1172 38.7436Z" fill="#7F1824"/>
<path d="M93.8123 45.2849C94.1197 45.6203 94.5391 45.816 94.9863 45.8719C94.6229 45.6203 94.2036 45.4805 93.8123 45.2849Z" fill="#AE1B30"/>
<path d="M94.2876 45.3687C94.3994 45.4246 94.5392 45.5085 94.651 45.5364C94.5392 45.4805 94.4274 45.4246 94.2876 45.3687Z" fill="#AE1B30"/>
<path d="M93.8123 45.2849C94.2036 45.4805 94.6229 45.6203 94.9863 45.8719C94.9024 45.7321 94.7906 45.6203 94.6509 45.5364C94.5111 45.4805 94.3993 45.4246 94.2875 45.3687C94.1477 45.3408 93.98 45.3128 93.8123 45.2849Z" fill="#AE1B30"/>
<path d="M102.058 26.4999C102.058 27.9535 101.919 29.3792 101.639 30.7489C103.652 30.2178 105.581 29.463 107.454 28.5126C107.509 27.8417 107.537 27.1708 107.537 26.4999C107.537 26.1086 107.537 25.7172 107.509 25.3259C105.637 24.4034 103.736 23.6766 101.807 23.1455C101.947 24.2357 102.058 25.3538 102.058 26.4999Z" fill="#2B1F48"/>
<path d="M101.555 31.0285C103.596 30.4973 105.553 29.7985 107.426 28.8481C107.426 28.7363 107.454 28.6244 107.454 28.5126C105.581 29.4631 103.652 30.2178 101.639 30.7489C101.611 30.8328 101.583 30.9166 101.555 31.0285Z" fill="#2B1F48"/>
<path d="M101.723 22.8101C101.751 22.9219 101.751 23.0337 101.779 23.1176C103.736 23.6487 105.637 24.3755 107.482 25.298C107.482 25.1862 107.482 25.0464 107.454 24.9346C106.28 24.3755 105.022 23.9003 103.792 23.4531C103.121 23.2294 102.422 23.0058 101.723 22.8101Z" fill="#2B1F48"/>
<path d="M98.3687 14.5917C98.6482 14.0885 98.9277 13.5854 99.1793 13.0822C99.8502 11.7404 100.409 10.3428 100.857 8.91714C100.186 8.16239 99.4868 7.4356 98.7321 6.76471C96.7474 7.4356 94.8745 8.24625 93.0854 9.25258C95.154 10.7062 96.943 12.5231 98.3687 14.5917Z" fill="#263261"/>
<path d="M98.3687 14.5918C98.4246 14.6756 98.4805 14.7315 98.5084 14.8154C99.5427 12.9984 100.381 11.0976 101.024 9.11285C100.968 9.05694 100.912 8.97308 100.857 8.91718C100.409 10.3428 99.8502 11.7405 99.1793 13.0823C98.8998 13.5854 98.6482 14.0886 98.3687 14.5918Z" fill="#263261"/>
<path d="M93.0855 9.28059C94.8745 8.27426 96.7474 7.43565 98.7321 6.79272C98.6482 6.73681 98.5923 6.65295 98.5084 6.59705C96.5237 7.26793 94.6508 8.10654 92.8618 9.14082C92.9457 9.16878 93.0016 9.22468 93.0855 9.28059Z" fill="#263261"/>
<path d="M68.7657 9.39241C67.0046 8.35813 65.1318 7.51952 63.203 6.84863C62.3084 7.65929 61.4978 8.52585 60.7151 9.44832C61.4139 11.433 62.2805 13.3059 63.3427 15.0949C64.7684 12.8866 66.6133 10.9578 68.7657 9.39241Z" fill="#0C8F39"/>
<path d="M68.9895 9.2527C67.2005 8.21842 65.3556 7.35186 63.4268 6.68097C63.3708 6.73688 63.287 6.79278 63.2031 6.87664C65.1319 7.51958 66.9769 8.38614 68.7659 9.42042C68.8218 9.36451 68.9057 9.30861 68.9895 9.2527Z" fill="#0C8F39"/>
<path d="M63.343 15.0949C62.2807 13.3059 61.4142 11.433 60.7153 9.4483C60.6594 9.53216 60.6035 9.58807 60.5476 9.67193C61.2464 11.6287 62.141 13.5295 63.2032 15.3186C63.2312 15.2626 63.2871 15.1788 63.343 15.0949Z" fill="#0C8F39"/>
<path d="M76.9563 5.87025C78.2701 5.61867 79.6398 5.4789 81.0096 5.4789C82.1836 5.4789 83.3297 5.59072 84.4479 5.75844C83.8888 3.77374 83.162 1.87289 82.2116 0.0279534C81.8202 -1.60368e-07 81.4009 0 81.0096 0C80.3946 0 79.7517 0.0279535 79.1367 0.0559071C78.969 0.363397 78.8292 0.670886 78.6894 1.00633C78.0185 2.59968 77.4036 4.22099 76.9563 5.87025Z" fill="#09544A"/>
<path d="M76.9562 5.87025C77.4034 4.22099 78.0184 2.62764 78.6893 1.00633C78.8291 0.670887 78.9968 0.363398 79.1365 0.0559082C79.0247 0.0559082 78.9409 0.0559083 78.8291 0.0838619C77.9066 1.95675 77.1798 3.9135 76.6487 5.92616C76.7605 5.89821 76.8723 5.87025 76.9562 5.87025Z" fill="#09544A"/>
<path d="M84.7275 5.78639C84.1684 3.77373 83.4696 1.84494 82.5192 0.0279534C82.4073 0.0279534 82.3235 0.0279536 82.2117 0C83.1621 1.84494 83.8889 3.74578 84.448 5.73048C84.5598 5.75844 84.6436 5.78639 84.7275 5.78639Z" fill="#09544A"/>
<path d="M59.9884 26.5C59.9884 25.3259 60.1002 24.1798 60.268 23.0338C58.3112 23.509 56.3824 24.2358 54.5375 25.1303C54.5095 25.5775 54.5095 26.0248 54.5095 26.5C54.5095 27.3107 54.5375 28.0934 54.6213 28.904C56.4942 29.7706 58.451 30.4694 60.4636 30.9446C60.1561 29.519 59.9884 28.0095 59.9884 26.5Z" fill="#AF8614"/>
<path d="M60.324 22.7542C59.4015 22.9778 58.507 23.2574 57.5845 23.5928C56.5503 23.9842 55.5439 24.3755 54.5655 24.8228C54.5655 24.9346 54.5376 25.0464 54.5376 25.1303C56.3825 24.2358 58.2834 23.509 60.2681 23.0337C60.296 22.9499 60.296 22.8381 60.324 22.7542Z" fill="#AF8614"/>
<path d="M60.4636 30.9447C58.451 30.4695 56.4942 29.7706 54.6213 28.9041C54.6213 28.9879 54.6493 29.0997 54.6493 29.1836C56.5501 30.0501 58.5069 30.749 60.5195 31.2242C60.4916 31.1403 60.4916 31.0285 60.4636 30.9447Z" fill="#AF8614"/>
<path d="M63.6784 38.3803C62.6162 40.1134 61.7496 41.9584 61.0508 43.8872C61.9453 44.9214 62.9237 45.8719 63.958 46.7384C65.8588 46.0116 67.7037 45.0892 69.4369 44.0269C67.1726 42.5454 65.2159 40.6166 63.6784 38.3803Z" fill="#D63316"/>
<path d="M63.5385 38.1846C62.4483 39.9177 61.5538 41.7626 60.855 43.6914C60.9109 43.7753 60.9948 43.8312 61.0507 43.9151C61.7495 41.9863 62.6161 40.1413 63.6783 38.4082C63.6224 38.3243 63.5665 38.2405 63.5385 38.1846Z" fill="#D63316"/>
<path d="M69.6323 44.1946C69.5764 44.1387 69.4926 44.1108 69.4367 44.0549C67.6756 45.1171 65.8586 46.0396 63.9578 46.7664C64.0137 46.8223 64.0975 46.8782 64.1534 46.9341C64.9641 46.6266 65.7468 46.3191 66.5295 45.9278C67.5917 45.3966 68.626 44.8096 69.6323 44.1946Z" fill="#D63316"/>
<path d="M81.7643 30.2737L84.1962 27.8417L90.374 21.664C90.6535 21.3845 91.1287 21.3845 91.4362 21.664L93.7564 23.9841C93.9241 23.8164 94.0079 23.5928 94.0079 23.3412V15.2906C94.0079 14.7595 93.5607 14.3122 93.0296 14.3122H85.0069C84.7273 14.3122 84.5037 14.424 84.308 14.5917L86.2368 16.5205L86.7959 17.0796C87.1314 17.415 87.1314 17.9462 86.7959 18.2816L81.1213 23.9562C80.7859 24.2916 80.2548 24.2916 79.9193 23.9562L77.4035 21.4404C77.096 21.3285 76.7326 21.3845 76.509 21.636L72.5396 25.6054L69.9958 28.1492L68.4025 29.7426C67.3961 30.7489 67.3961 32.3423 68.4025 33.3486C69.4088 34.3549 71.0021 34.3549 72.0085 33.3486L72.9868 32.3702L76.5649 28.7922C76.9003 28.4567 77.4594 28.4567 77.7949 28.7922L78.5776 29.5749L79.7516 30.7489C80.1709 31.1682 80.8418 31.1682 81.2611 30.7489L81.7643 30.2737Z" fill="#189CD9"/>
<path d="M83.4694 30.3575L81.6804 32.1466L81.1493 32.6777C81.1213 32.7056 81.0654 32.7616 81.0095 32.7895V38.2125H83.4415V30.3575H83.4694Z" fill="#189CD9"/>
<path d="M86.9915 38.1846V26.8075L84.5596 29.2395V38.1846H86.9915Z" fill="#189CD9"/>
<path d="M90.5416 23.3692C90.4577 23.3972 90.3459 23.4531 90.29 23.5369L88.1096 25.7173V38.2126H90.5416V23.3692Z" fill="#189CD9"/>
<path d="M78.4658 31.4758L77.6831 30.6931C77.6272 30.6371 77.5713 30.6092 77.5154 30.5533V38.1846H79.9473V32.8455C79.8355 32.7896 79.7517 32.7337 79.6678 32.6498L78.4658 31.4758Z" fill="#189CD9"/>
<path d="M70.3872 35.9763V38.2126H72.8192V34.2991L71.8408 35.2774C71.4494 35.6688 70.9463 35.8924 70.3872 35.9763Z" fill="#189CD9"/>
<path d="M73.9373 38.1847H76.3692V30.749L73.9373 33.181V38.1847Z" fill="#189CD9"/>
</svg>
