<svg width="52" height="52" viewBox="0 0 52 52" fill="none" xmlns="http://www.w3.org/2000/svg">
<path d="M26 52C40.3594 52 52 40.3594 52 26C52 11.6406 40.3594 0 26 0C11.6406 0 0 11.6406 0 26C0 40.3594 11.6406 52 26 52Z" fill="white"/>
<path d="M50.7768 24.89C50.7713 24.7754 50.7658 24.6608 50.7589 24.5476C49.6476 24.0161 48.4907 23.5771 47.3325 23.1616C46.6837 22.9283 46.0279 22.724 45.3695 22.5459C45.3874 22.6439 45.4067 22.7419 45.4219 22.8413C45.5876 23.8698 45.6773 24.9245 45.6773 25.9999C45.6773 27.3596 45.5393 28.6877 45.277 29.9701C45.259 30.0612 45.2342 30.1496 45.2148 30.2393C47.1227 29.7506 48.9559 29.0756 50.705 28.1921C50.7147 28.0872 50.7243 27.9836 50.7326 27.8787C50.7796 27.2575 50.803 26.6307 50.803 25.9985C50.8017 25.6285 50.792 25.2585 50.7768 24.89Z" fill="#2B1F48"/>
<path d="M42.1255 37.2824C43.0973 38.9348 43.9298 40.6466 44.5855 42.4357C48.0008 38.569 50.2289 33.6324 50.7052 28.1919C48.9561 29.0768 47.1228 29.7518 45.215 30.2391C44.6504 32.8124 43.5847 35.1951 42.1255 37.2824Z" fill="#A2186A"/>
<path d="M42.3589 15.0541C43.8443 17.274 44.8852 19.814 45.3683 22.546C46.0282 22.7255 46.6826 22.9298 47.3314 23.1617C48.491 23.5772 49.6465 24.0162 50.7577 24.5477C50.4319 18.8877 48.2108 13.7358 44.7195 9.71582C44.1218 11.5726 43.3335 13.3492 42.3589 15.0541Z" fill="#293980"/>
<path d="M21.8904 6.70752C22.3957 4.82316 23.079 3.00368 23.9335 1.24219C18.3992 1.68946 13.377 3.95069 9.46191 7.43089C11.2759 8.05349 13.0139 8.85693 14.6788 9.83569C16.813 8.34339 19.2537 7.25971 21.8904 6.70752Z" fill="#009B65"/>
<path d="M6.56428 22.4837C7.01708 19.9685 7.94615 17.6203 9.25622 15.533C8.24985 13.8474 7.42708 12.0776 6.76583 10.2319C3.55069 14.1415 1.50758 19.0518 1.17212 24.4247C2.09704 23.9981 3.04681 23.6198 4.00763 23.2623C4.8511 22.9476 5.70424 22.6894 6.56428 22.4837Z" fill="#BBCC11"/>
<path d="M37.0618 9.70575C38.7363 8.74493 40.4978 7.9553 42.349 7.3327C38.307 3.7821 33.1039 1.52225 27.3818 1.19922C28.2571 2.91516 28.9294 4.72083 29.447 6.5969C32.2315 7.09388 34.8144 8.17203 37.0618 9.70575Z" fill="#0E6EB9"/>
<path d="M6.75195 30.4324C4.8524 29.9851 3.01912 29.3418 1.24658 28.519C1.76702 33.6793 3.86674 38.3743 7.05565 42.1113C7.7031 40.3015 8.55486 38.5897 9.56951 36.9538C8.25943 35.0004 7.29447 32.7972 6.75195 30.4324Z" fill="#FFA921"/>
<path d="M15.2931 42.5767C14.3434 43.1647 13.3674 43.7128 12.3596 44.2167C11.6376 44.5797 10.8894 44.8683 10.1384 45.1513C13.8671 48.2353 18.5124 50.2494 23.605 50.7284C22.7988 48.9821 22.1859 47.153 21.7276 45.2548C19.4028 44.7468 17.2313 43.8274 15.2931 42.5767Z" fill="#DE3521"/>
<path d="M29.4733 45.397C28.3331 45.6027 27.161 45.7145 25.9614 45.7145C24.5989 45.7145 23.2695 45.5764 21.9842 45.3128C21.8986 45.2948 21.8144 45.2727 21.7302 45.2534C22.1872 47.153 22.8001 48.9807 23.6077 50.727C23.7057 50.7367 23.8023 50.745 23.9003 50.7533C24.5809 50.8085 25.267 50.8388 25.9614 50.8388C26.515 50.8388 27.063 50.8195 27.6083 50.7836C27.7008 50.7781 27.7947 50.7726 27.8872 50.7657C28.6768 49.0083 29.3049 47.204 29.7481 45.3459C29.6556 45.3666 29.5645 45.3804 29.4733 45.397Z" fill="#BC1D1E"/>
<path d="M39.8008 44.4705C39.5481 44.3711 38.3195 43.8023 37.9537 43.6242C37.436 43.3302 36.9252 43.0237 36.4227 42.709C34.4127 43.9707 32.1584 44.8791 29.7481 45.3485C29.305 47.2066 28.6768 49.0109 27.8872 50.7682C33.1165 50.3679 37.8916 48.3469 41.7141 45.209C41.0722 44.973 40.4372 44.719 39.8008 44.4705Z" fill="#D01738"/>
<path d="M42.1256 37.2827C42.0814 37.3448 42.0373 37.407 41.9931 37.4691C40.5436 39.4901 38.7227 41.2254 36.6285 42.5769C36.5595 42.621 36.4919 42.6652 36.4229 42.7094C36.9267 43.0241 37.9538 43.6247 37.9538 43.6247C38.3196 43.8027 39.5496 44.3729 39.8009 44.4709C40.4373 44.7207 41.0723 44.9734 41.7129 45.2094C41.7874 45.1487 41.8606 45.0866 41.9337 45.0245C42.8103 44.2873 43.6359 43.4921 44.402 42.6431C44.4628 42.5755 44.5235 42.5065 44.5843 42.4374C43.9299 40.6469 43.0975 38.9352 42.1256 37.2827Z" fill="#871927"/>
<path d="M44.5511 9.52383C43.9244 8.81703 43.2576 8.14611 42.555 7.51523C42.4873 7.45449 42.4183 7.39375 42.3493 7.33301C40.498 7.95561 38.7365 8.74662 37.062 9.70606C37.131 9.75299 37.1973 9.80269 37.2663 9.85101C39.199 11.2066 40.879 12.8991 42.2167 14.8456C42.2637 14.9146 42.312 14.9836 42.3589 15.0527C43.3335 13.3491 44.1218 11.5711 44.7209 9.71572C44.6643 9.65222 44.6077 9.58872 44.5511 9.52383Z" fill="#28356A"/>
<path d="M9.46187 7.43115C9.39698 7.48913 9.33072 7.54711 9.26584 7.60509C8.43341 8.36022 7.65482 9.17194 6.93144 10.0334C6.87622 10.0996 6.81962 10.1659 6.7644 10.2322C7.42566 12.0779 8.24842 13.8476 9.25479 15.5332C9.29897 15.4628 9.34453 15.3924 9.39008 15.322C10.7361 13.2388 12.4617 11.4263 14.4716 9.98228C14.5407 9.93259 14.6097 9.88427 14.6787 9.83457C13.0138 8.85719 11.2772 8.05237 9.46187 7.43115Z" fill="#07973D"/>
<path d="M27.382 1.19962C27.2868 1.1941 27.1901 1.18995 27.0949 1.18443C26.7194 1.16787 26.3411 1.1582 25.9615 1.1582C25.3734 1.1582 24.7895 1.18029 24.2111 1.22032C24.1186 1.22723 24.0261 1.23275 23.935 1.24103C23.0804 3.00253 22.3971 4.82338 21.8918 6.70636C21.9788 6.68841 22.0658 6.67185 22.1528 6.65528C23.3855 6.4137 24.6583 6.28393 25.9629 6.28393C27.0617 6.28393 28.1371 6.37781 29.1863 6.55037C29.2747 6.56417 29.3616 6.58212 29.45 6.5973C28.9295 4.72261 28.2572 2.91556 27.382 1.19962Z" fill="#085D51"/>
<path d="M6.68987 30.1648C6.40135 28.8216 6.24536 27.4301 6.24536 25.9999C6.24536 24.8955 6.34061 23.8132 6.51593 22.7571C6.53112 22.6646 6.54907 22.5735 6.56425 22.4824C5.70421 22.6895 4.85107 22.9463 4.00622 23.2624C3.0454 23.6199 2.09563 23.9982 1.17071 24.4248C1.1638 24.5242 1.1569 24.6235 1.15138 24.7229C1.13067 25.1454 1.11963 25.5719 1.11963 25.9999C1.11963 26.7578 1.15552 27.506 1.22178 28.2459C1.23007 28.337 1.23697 28.4282 1.24663 28.5193C3.01917 29.342 4.85245 29.984 6.752 30.4326C6.73129 30.3429 6.7092 30.2545 6.68987 30.1648Z" fill="#B78B13"/>
<path d="M15.0983 42.4508C12.9751 41.0468 11.1404 39.2439 9.70058 37.147C9.65641 37.0835 9.61223 37.02 9.56806 36.9551C8.5534 38.5909 7.70165 40.3027 7.0542 42.1126C7.11356 42.183 7.1743 42.2534 7.23504 42.3224C8.07023 43.2804 8.97859 44.1722 9.95045 44.9922C10.014 45.0461 10.0761 45.0999 10.1396 45.1524C10.8892 44.8694 11.6388 44.5795 12.3608 44.2178C13.3671 43.7125 14.3431 43.1659 15.2943 42.5778C15.228 42.535 15.1618 42.4936 15.0983 42.4508Z" fill="#E14916"/>
<path d="M26.6475 29.53L28.9184 27.2591L34.7081 21.4707C34.9801 21.1988 35.4218 21.1988 35.6938 21.4707L37.8556 23.6326C38.0047 23.4711 38.0986 23.2557 38.0986 23.0183V15.5015C38.0986 14.999 37.6913 14.5918 37.1888 14.5918H29.6721C29.4209 14.5918 29.1931 14.694 29.0288 14.8582L30.8372 16.6667L31.348 17.1774C31.6628 17.4922 31.6628 18.0016 31.348 18.3163L26.0221 23.6422C25.7074 23.957 25.198 23.957 24.8832 23.6422L22.5267 21.2858C22.2424 21.1795 21.9097 21.2388 21.6805 21.468L17.9518 25.1967L15.5663 27.5821L14.0809 29.0675C13.1491 29.9994 13.1491 31.511 14.0809 32.4442C15.0128 33.376 16.5258 33.376 17.4576 32.4442L18.377 31.5262L21.7205 28.1813C22.0422 27.8596 22.564 27.8596 22.8857 28.1813L23.6256 28.9212L23.6325 28.9157L24.741 30.0242C25.1317 30.4149 25.7667 30.4149 26.1574 30.0242L26.6475 29.53Z" fill="#15A1E0"/>
<path d="M28.246 29.6152L26.5743 31.287L26.0814 31.7798C26.0442 31.8185 26.0028 31.8489 25.96 31.8792V36.9663H28.246V29.6152Z" fill="#15A1E0"/>
<path d="M31.5649 36.9662V26.2979L29.2788 28.5839V36.9662H31.5649Z" fill="#15A1E0"/>
<path d="M34.882 23.0703C34.7923 23.1034 34.7067 23.1559 34.6335 23.2291L32.5959 25.2667V36.9676H34.882V23.0703Z" fill="#15A1E0"/>
<path d="M23.5566 30.6712L23.5497 30.6781L22.8098 29.9381C22.7587 29.887 22.7007 29.847 22.6414 29.8125V36.9662H24.9274V31.9647C24.8336 31.9177 24.7425 31.8598 24.6638 31.7797L23.5566 30.6712Z" fill="#15A1E0"/>
<path d="M16.0068 34.8778V36.9664H18.2929V33.293L17.3832 34.2013C16.9966 34.5879 16.5107 34.8115 16.0068 34.8778Z" fill="#15A1E0"/>
<path d="M19.3254 36.9663H21.6101V29.9741L19.3254 32.2602V36.9663Z" fill="#15A1E0"/>
</svg>
