<svg width="259" height="135" viewBox="0 0 259 135" fill="none" xmlns="http://www.w3.org/2000/svg">
<path d="M128.41 74.3009C128.645 75.9643 129.107 77.2062 129.797 78.0305C131.058 79.5298 133.217 80.2794 136.279 80.2794C138.111 80.2794 139.599 80.0817 140.744 79.6864C142.914 78.9293 143.996 77.5232 143.996 75.4645C143.996 74.2636 143.466 73.3312 142.403 72.6748C141.34 72.0333 139.655 71.4664 137.35 70.9704L133.407 70.1051C129.532 69.251 126.873 68.3186 125.422 67.3154C122.968 65.637 121.741 63.0114 121.741 59.4385C121.741 56.1788 122.942 53.4711 125.34 51.3117C127.742 49.156 131.267 48.0781 135.917 48.0781C139.8 48.0781 143.112 49.0963 145.857 51.1289C148.598 53.1616 150.038 56.1154 150.168 59.983H142.858C142.724 57.7937 141.743 56.2385 139.923 55.3135C138.707 54.7056 137.197 54.3998 135.392 54.3998C133.381 54.3998 131.778 54.7951 130.58 55.5858C129.383 56.3765 128.783 57.4804 128.783 58.8939C128.783 60.1956 129.372 61.1653 130.554 61.8067C131.315 62.2356 132.926 62.7354 135.392 63.3135L141.78 64.8203C144.581 65.4804 146.677 66.3606 148.076 67.4645C150.247 69.1764 151.332 71.6566 151.332 74.8976C151.332 78.2244 150.045 80.9843 147.475 83.1848C144.906 85.3815 141.273 86.4817 136.581 86.4817C131.789 86.4817 128.018 85.4001 125.273 83.2332C122.528 81.0701 121.156 78.0939 121.156 74.3046H128.41V74.3009Z" fill="#575756"/>
<path d="M182.519 69.7809C180.389 71.5599 177.346 72.4476 173.389 72.4476H165.81V85.5384H158.254V49.1339H173.885C177.488 49.1339 180.363 50.0738 182.504 51.9497C184.645 53.8257 185.719 56.7311 185.719 60.6695C185.715 64.966 184.648 68.0019 182.519 69.7809ZM176.712 56.6677C175.75 55.8621 174.4 55.4556 172.662 55.4556H165.807V66.1744H172.662C174.396 66.1744 175.746 65.738 176.712 64.8653C177.674 63.9926 178.159 62.6089 178.159 60.718C178.155 58.8234 177.674 57.4733 176.712 56.6677Z" fill="#575756"/>
<path d="M199.91 49.1339H208.518L221.396 85.5384H213.146L210.744 78.0569H197.34L194.871 85.5384H186.916L199.91 49.1339ZM199.41 71.7837H208.734L204.136 57.4584L199.41 71.7837Z" fill="#575756"/>
<path d="M248.775 49.9246C251.33 50.7637 253.396 52.3041 254.977 54.5418C256.245 56.3544 257.11 58.3124 257.573 60.4197C258.035 62.5269 258.267 64.5371 258.267 66.4467C258.267 71.2877 257.293 75.3865 255.35 78.7469C252.713 83.2746 248.644 85.5384 243.139 85.5384H227.445V49.1339H243.139C245.396 49.1675 247.276 49.4323 248.775 49.9246ZM234.83 55.4556V79.213H241.856C245.452 79.213 247.958 77.4452 249.375 73.9021C250.151 71.959 250.539 69.6467 250.539 66.9614C250.539 63.2579 249.957 60.4122 248.793 58.428C247.63 56.4439 245.318 55.4518 241.856 55.4518H234.83V55.4556Z" fill="#575756"/>
<path d="M203.102 121.835V102.437H207.153V118.277H215.339V121.835H203.102Z" fill="#39C7F3"/>
<path d="M219.848 105.924C219.147 105.924 218.61 105.745 218.241 105.391C217.871 105.037 217.685 104.593 217.685 104.067C217.685 103.53 217.871 103.086 218.241 102.735C218.61 102.385 219.147 102.21 219.848 102.21C220.549 102.21 221.086 102.385 221.455 102.735C221.825 103.086 222.011 103.53 222.011 104.067C222.011 104.597 221.825 105.037 221.455 105.391C221.086 105.745 220.549 105.924 219.848 105.924ZM217.931 121.835V107.77H221.75V121.835H217.931Z" fill="#39C7F3"/>
<path d="M225.845 121.835V107.77H229.519L229.59 109.874C230.06 109.27 230.679 108.733 231.447 108.267C232.216 107.8 233.215 107.569 234.446 107.569C235.878 107.569 236.986 108.005 237.776 108.874C238.563 109.743 238.959 111.015 238.959 112.686V121.839H235.169V113.178C235.169 112.671 235.099 112.224 234.953 111.839C234.808 111.455 234.58 111.157 234.267 110.944C233.954 110.732 233.543 110.627 233.036 110.627C232.275 110.627 231.626 110.806 231.086 111.161C230.541 111.515 230.071 111.948 229.665 112.459V121.839H225.845V121.835Z" fill="#39C7F3"/>
<path d="M249.409 122.092C247.842 122.092 246.526 121.801 245.459 121.219C244.393 120.638 243.587 119.798 243.039 118.706C242.491 117.613 242.218 116.293 242.218 114.756C242.218 113.268 242.483 111.985 243.016 110.907C243.55 109.829 244.333 109.001 245.366 108.419C246.399 107.838 247.671 107.547 249.178 107.547C251.274 107.547 252.926 108.158 254.142 109.385C255.358 110.609 255.966 112.358 255.966 114.626C255.966 114.741 255.962 114.898 255.951 115.095C255.939 115.293 255.925 115.442 255.906 115.55H246.034C246.052 116.214 246.175 116.833 246.399 117.408C246.627 117.982 246.981 118.448 247.473 118.799C247.962 119.15 248.607 119.325 249.405 119.325C250.233 119.325 250.893 119.146 251.393 118.784C251.893 118.422 252.146 117.889 252.158 117.177H255.917C255.869 118.273 255.57 119.183 255.018 119.914C254.466 120.645 253.713 121.19 252.754 121.551C251.8 121.913 250.684 122.092 249.409 122.092ZM246.078 113.13H252.173C252.143 112.149 251.852 111.418 251.3 110.933C250.748 110.448 250.039 110.206 249.174 110.206C248.29 110.206 247.567 110.456 247.003 110.956C246.444 111.452 246.134 112.179 246.078 113.13Z" fill="#39C7F3"/>
<path d="M11.1813 59.6623C8.17153 54.4483 6.43728 48.4064 6.43728 41.9616C6.43728 22.3738 22.3738 6.43728 41.9616 6.43728C59.1588 6.43728 73.5401 18.7225 76.7923 34.9761H83.3377C79.9997 15.1533 62.7168 0 41.9616 0C18.8232 0 0 18.8232 0 41.9616C0 49.3462 1.92073 56.2945 5.28482 62.3289C6.98925 61.0683 8.98458 60.1508 11.1813 59.6623Z" fill="url(#paint0_linear_3490_22117)"/>
<path d="M41.57 71.2874C41.7005 71.2874 41.8311 71.2986 41.9653 71.2986C48.6972 71.2986 54.9033 69.0123 59.8599 65.1858C55.0114 64.313 51.334 61.4226 49.4655 57.1671C47.2017 58.286 44.6581 58.92 41.9653 58.92C32.6152 58.92 25.0068 51.3117 25.0068 41.9616C25.0068 40.2161 25.2716 38.5304 25.764 36.9453C23.9402 35.4236 22.7765 33.1337 22.7765 30.5752C22.7765 25.9952 26.4912 22.2806 31.0712 22.2806C33.7639 22.2806 36.1583 23.5672 37.6726 25.5551C39.045 25.1971 40.4809 25.0031 41.9653 25.0031C49.1597 25.0031 55.3209 29.5085 57.7787 35.8488C59.569 35.2633 61.5494 34.9612 63.6678 34.9612L70.4557 34.9686C67.3116 22.1575 55.735 12.6246 41.9691 12.6246C25.7938 12.6246 12.6321 25.7864 12.6321 41.9616C12.6321 48.425 14.7356 54.3998 18.2899 59.252H26.7038C34.0026 59.252 40.1192 64.4249 41.57 71.2874Z" fill="url(#paint1_linear_3490_22117)"/>
<path d="M48.0928 50.1854C48.1114 43.8712 50.793 40.3095 53.0382 38.4335C54.0974 37.5496 55.2984 36.8298 56.6224 36.2815C54.3436 30.4074 48.6411 26.2415 41.9651 26.2415C40.7306 26.2415 39.5334 26.3869 38.3847 26.6554C39.0112 27.8228 39.3655 29.1543 39.3655 30.5715C39.3655 35.1514 35.6509 38.8661 31.0709 38.8661C29.5232 38.8661 28.0724 38.4409 26.8341 37.7025C26.4537 39.0563 26.2449 40.4847 26.2449 41.9617C26.2449 50.6442 33.2826 57.6819 41.9651 57.6819C44.5012 57.6819 46.8919 57.0777 49.014 56.0111C48.4098 54.2544 48.0891 52.3001 48.0928 50.1854ZM39.4327 41.9617C39.4327 40.5631 40.5665 39.4293 41.9651 39.4293C43.3637 39.4293 44.4975 40.5631 44.4975 41.9617C44.4975 43.3603 43.3637 44.4941 41.9651 44.4941C40.5665 44.4941 39.4327 43.3603 39.4327 41.9617Z" fill="url(#paint2_linear_3490_22117)"/>
<path d="M88.4621 38.0643H64.1563C57.4244 38.0643 51.968 43.5207 51.968 50.2526C51.968 56.9845 57.4244 62.4409 64.1563 62.4409H88.4621C95.194 62.4409 100.65 56.9845 100.65 50.2526C100.654 43.5207 95.194 38.0643 88.4621 38.0643Z" fill="url(#paint3_linear_3490_22117)"/>
<path d="M87.7574 50.2152C87.7574 45.1728 84.6768 40.8465 80.2908 39.0041C78.8288 38.3887 77.2996 38.0642 75.6101 38.0642C75.5989 38.0642 63.6642 38.0493 63.6642 38.0493C57.2232 38.0493 51.2037 41.35 51.1776 50.1966C51.1552 57.7117 55.9253 62.3849 63.0302 62.3849H63.2987V76.8184C74.081 89.044 87.7537 81.596 87.7537 70.963V50.2264V50.2227L87.7574 50.2152Z" fill="url(#paint4_linear_3490_22117)"/>
<path d="M60.5311 74.5917H14.5154V98.9907H60.5311C75.5352 98.9907 87.7012 88.0668 87.7012 74.5917V50.1927C87.7012 63.6678 75.5352 74.5917 60.5311 74.5917Z" fill="url(#paint5_linear_3490_22117)"/>
<path d="M51.6137 91.5541C54.2647 91.5541 56.4137 89.405 56.4137 86.7541C56.4137 84.1031 54.2647 81.9541 51.6137 81.9541C48.9627 81.9541 46.8137 84.1031 46.8137 86.7541C46.8137 89.405 48.9627 91.5541 51.6137 91.5541Z" fill="white"/>
<path d="M89.79 106.611H92.8333H93.0571C93.982 106.562 97.4841 105.805 97.7564 97.667C97.734 97.7416 97.6892 97.8162 97.6072 97.8162H89.7937C87.3657 97.8162 85.3965 99.7854 85.3965 102.213C85.3928 104.641 87.362 106.611 89.79 106.611Z" fill="url(#paint6_linear_3490_22117)"/>
<path d="M93.0535 106.61H97.6035C102.549 106.61 106.573 102.586 106.573 97.637V90.5843C106.573 88.1564 104.604 86.1871 102.176 86.1871C99.7481 86.1871 97.7788 88.1564 97.7788 90.5843V96.6822V97.637C97.7788 97.6519 97.7527 97.6519 97.749 97.6668C97.4842 105.805 93.9784 106.558 93.0535 106.61Z" fill="url(#paint7_linear_3490_22117)"/>
<path d="M106.551 32.8017V30.1873V29.9971C106.51 29.2027 105.861 26.1929 98.8713 25.9617C98.9347 25.9803 99.0019 26.0176 99.0019 26.0885V32.8017C99.0019 34.8866 100.691 36.5761 102.776 36.5761C104.861 36.5798 106.551 34.8866 106.551 32.8017Z" fill="url(#paint8_linear_3490_22117)"/>
<path d="M106.55 29.9973V26.0886C106.55 21.8406 103.093 18.3833 98.8452 18.3833H92.7883C90.7035 18.3833 89.0139 20.0728 89.0139 22.1576C89.0139 24.2425 90.7035 25.932 92.7883 25.932H98.0284H98.8489C98.8638 25.932 98.8601 25.9544 98.875 25.9581C105.861 26.1931 106.509 29.2066 106.55 29.9973Z" fill="url(#paint9_linear_3490_22117)"/>
<path d="M38.8287 110.045V81.9802C38.8287 81.9802 38.8138 77.2996 38.8138 74.4241C38.8138 67.7519 33.391 62.3402 26.6964 62.3402H14.9183C8.22745 62.3402 2.33468 67.0171 2.3123 74.5994C2.29365 81.5476 7.9589 86.1835 14.4111 86.452V110.042C14.4111 123.826 25.3425 135 38.825 135H63.2389C49.7602 135.004 38.8287 123.826 38.8287 110.045Z" fill="url(#paint10_linear_3490_22117)"/>
<mask id="mask0_3490_22117" style="mask-type:luminance" maskUnits="userSpaceOnUse" x="2" y="62" width="62" height="74">
<path d="M38.829 110.045V81.9802C38.829 81.9802 38.8141 77.2996 38.8141 74.4241C38.8141 67.7519 33.3912 62.3402 26.6966 62.3402H14.9186C8.22769 62.3402 2.33492 67.0171 2.31255 74.5994C2.2939 81.5476 7.95915 86.1835 14.4113 86.452V110.042C14.4113 123.826 25.3428 135 38.8253 135H63.2391C49.7604 135.004 38.829 123.826 38.829 110.045Z" fill="white"/>
</mask>
<g mask="url(#mask0_3490_22117)">
<path d="M59.7148 110.799C59.5357 109.986 59.1851 109.053 58.0775 108.87V108.867C58.29 106.879 58.2751 104.831 58.0327 102.609C57.5292 97.9987 56.1493 94.2095 53.8071 91.0319C51.45 87.8319 48.3917 85.7359 44.7218 84.7997C40.8691 83.8188 36.9866 84.0612 33.1862 85.5307C27.4985 87.7274 23.851 91.7703 22.3443 97.5549C21.5088 100.759 21.6095 104.194 22.6463 108.054C22.8254 108.714 22.9522 109.381 23.0902 110.09C23.1349 110.318 23.1797 110.545 23.2244 110.776C22.1391 111.008 21.8557 111.858 21.7401 112.507C21.5387 113.611 21.5909 114.76 21.8967 116.016C22.43 118.221 22.9895 120.399 23.6123 122.812C23.8771 123.834 24.5746 124.501 25.686 124.796C25.7717 124.818 25.8799 124.893 25.8911 124.904C26.6706 128.029 28.4682 130.67 31.2281 132.751C32.7051 133.862 34.2827 134.888 35.8118 135.876C36.2258 136.145 36.6398 136.414 37.0538 136.682C38.7022 137.764 40.6267 138.237 42.5176 138.133C44.6696 138.014 46.7806 137.148 48.4067 135.582L48.8915 135.112C49.7567 134.273 50.6518 133.407 51.5581 132.591C54.8141 129.655 56.4924 126.676 56.8355 123.244C56.8542 123.203 56.9474 123.114 57.0071 123.091C58.1446 122.663 58.7712 121.853 58.9203 120.619C59.1143 119.037 59.3455 117.199 59.6439 115.379C59.8826 113.924 60.0541 112.358 59.7148 110.799ZM30.1353 100.863C29.2328 101.68 28.1251 102.351 27.1591 102.914L26.9727 103.022C24.996 104.171 24.7275 104.328 23.631 105.991C22.7993 101.773 23.2244 98.0509 24.9251 94.6421C26.5587 91.3675 29.0761 88.9619 32.6118 87.3023C32.6416 87.5857 32.6678 87.8431 32.6902 88.1041C32.7312 88.6337 32.7797 89.1671 32.8244 89.6967C32.9326 90.9498 33.0482 92.2477 33.1116 93.5232C33.2533 96.4733 32.2538 98.9423 30.1353 100.863ZM23.0976 113.096C23.1163 112.902 23.161 112.686 23.2431 112.421C23.2729 112.317 23.3177 112.25 23.3624 112.223C23.3774 112.216 23.3997 112.208 23.4258 112.208C23.478 112.205 23.5452 112.22 23.6235 112.246C23.9144 112.343 24.2837 112.429 24.5373 112.212C24.7909 111.996 24.7685 111.623 24.7126 111.284C24.6715 111.034 24.623 110.784 24.5708 110.53C24.4515 109.933 24.3433 109.37 24.3247 108.8C24.2762 107.345 24.8655 106.133 26.0179 105.294C26.6296 104.85 27.3158 104.466 27.9797 104.1C28.2519 103.947 28.5242 103.798 28.7927 103.642C31.7167 101.945 33.5591 99.5204 34.279 96.4286C34.3536 96.5181 34.4281 96.6076 34.5065 96.6971C34.9428 97.2155 35.3531 97.7041 35.8118 98.1703C38.3106 100.695 41.4547 102.351 45.4267 103.228C47.4556 103.675 49.5554 103.877 51.8453 103.843C54.3106 103.806 55.7801 104.79 56.6118 107.028C56.7274 107.338 56.705 107.744 56.6826 108.136C56.6751 108.255 56.6677 108.374 56.6677 108.49C56.6639 108.665 56.6304 108.844 56.5968 109.035C56.5633 109.217 56.5334 109.408 56.5222 109.605C56.511 109.844 56.567 110.194 56.7796 110.385C57.0593 110.646 57.5926 110.429 57.615 110.418C57.8947 110.303 57.973 110.318 57.9879 110.321C57.9991 110.325 58.0625 110.366 58.1558 110.623C58.607 111.85 58.5138 113.141 58.3833 114.125C58.2155 115.39 58.0327 116.654 57.8537 117.918C57.7343 118.761 57.615 119.608 57.4957 120.451C57.3838 121.264 57.0257 121.648 56.2649 121.786C55.7465 121.879 55.4742 122.17 55.4407 122.681C55.2132 125.963 53.6616 128.787 50.5549 131.565C49.7754 132.262 49.0108 132.997 48.2723 133.71C47.9889 133.986 47.7018 134.258 47.4183 134.534C44.7666 137.066 40.7759 137.432 37.7176 135.418C37.2253 135.093 36.7293 134.773 36.2333 134.452C34.9354 133.616 33.5964 132.747 32.3433 131.822C29.5088 129.726 27.8267 127.224 27.2002 124.169C27.1069 123.711 26.8235 123.472 26.3386 123.435C25.4958 123.371 25.1228 123.043 24.9102 122.193C24.4217 120.223 23.9181 118.232 23.4072 116.27C23.1088 115.08 23.0044 114.073 23.0976 113.096ZM51.808 102.415C48.5335 102.444 45.7064 102.012 43.1591 101.094C39.6048 99.8151 36.9642 97.8346 35.0808 95.0375C34.7638 94.5675 34.596 94.064 34.5512 93.4636C34.3983 91.3414 34.2118 89.1857 34.0328 87.1009L34.0179 86.9442C33.9992 86.7242 34.0029 86.7242 34.1186 86.6869C35.9573 86.0976 37.7139 85.7582 39.3959 85.6687C42.4505 85.5009 45.2626 86.1535 47.9069 87.6267C50.9875 89.3461 53.2626 92.0165 54.8625 95.7908C55.9479 98.353 56.567 101.169 56.746 104.38C55.5898 103.037 53.9637 102.396 51.808 102.415Z" fill="url(#paint11_linear_3490_22117)"/>
<path d="M14.6986 96.865C14.7023 96.865 14.7135 96.865 14.7135 96.865C15.1163 96.8427 15.3774 96.4809 15.4669 96.272C15.5564 96.0594 15.534 95.8618 15.5191 95.7387L15.5153 95.6902L15.217 90.204C15.2132 90.163 15.2133 90.1369 15.2133 90.1145C15.2357 90.1107 15.2692 90.107 15.3102 90.107L21.6319 89.7602H21.6617C21.7587 89.7639 21.9825 89.7751 22.1876 89.6147C22.2995 89.5289 22.3852 89.4319 22.4524 89.3536L22.5046 89.294C22.6165 89.1746 22.6725 89.018 22.665 88.8539C22.6575 88.6898 22.5867 88.5406 22.4673 88.4287L22.4039 88.369C22.3293 88.2982 22.251 88.2273 22.1652 88.1602C21.9489 87.9961 21.7177 88.0222 21.6244 88.0408L18.4468 88.2161C18.417 88.2124 18.3909 88.2124 18.361 88.2161L15.1722 88.3914C14.0869 88.4511 13.423 89.1933 13.4827 90.2786L13.7923 95.9326C13.7885 96.0259 13.7848 96.2683 13.9862 96.4921C14.1018 96.6114 14.3331 96.8762 14.6986 96.865Z" fill="url(#paint12_linear_3490_22117)"/>
<path d="M24.6005 135.127L17.9171 135.492C17.8574 135.496 17.8201 135.496 17.794 135.492C17.7902 135.466 17.7865 135.429 17.7828 135.373L17.4583 129.484V129.428C17.4546 129.305 17.4546 129.1 17.3352 128.898C17.1786 128.634 16.8467 128.376 16.4886 128.429C16.235 128.462 16.0038 128.622 15.8136 128.898C15.6607 129.126 15.6868 129.361 15.6979 129.473L15.7017 129.499L15.7576 130.551C15.8471 132.192 15.9366 133.829 16.0261 135.47C16.0895 136.626 16.8467 137.301 17.9991 137.242L22.8103 136.977C23.4331 136.943 24.0522 136.91 24.6751 136.872C24.6975 136.876 24.7161 136.876 24.731 136.872C24.7496 136.872 24.7646 136.869 24.772 136.869C24.8019 136.869 24.8354 136.869 24.8765 136.865C25.4135 136.835 25.7492 136.529 25.7902 136.022C25.8126 135.78 25.7343 135.552 25.5739 135.388C25.3054 135.123 24.9138 135.108 24.6005 135.127Z" fill="url(#paint13_linear_3490_22117)"/>
<path d="M47.1571 127.254C46.7096 127.008 46.262 126.728 45.8779 126.489C45.7101 126.385 45.5422 126.269 45.3781 126.157C45.1021 125.971 44.8149 125.777 44.5128 125.609C43.4425 125.024 42.4019 125.009 41.4173 125.572C41.3837 125.587 41.2756 125.59 41.2159 125.564C40.2835 125.173 39.366 125.244 38.4895 125.773C38.1502 125.978 37.8406 126.224 37.5385 126.463C37.4416 126.541 37.3446 126.616 37.2476 126.691C37.0126 126.873 36.7777 127.056 36.5427 127.243C36.2593 127.466 35.9758 127.69 35.6886 127.906C35.4052 128.123 35.3418 128.354 35.3418 128.511C35.3418 128.66 35.394 128.884 35.6513 129.093L36.0019 129.372C36.5539 129.816 37.1283 130.279 37.7175 130.7C38.8774 131.528 40.2052 131.908 41.6597 131.834C43.062 131.755 44.2518 131.308 45.1953 130.51C45.8033 129.995 46.3776 129.428 46.9333 128.88C47.0788 128.734 47.2243 128.593 47.3735 128.447C47.6159 128.212 47.642 127.985 47.6233 127.836C47.6009 127.675 47.504 127.444 47.1571 127.254ZM38.0756 127.869C38.5865 127.403 39.0826 126.974 39.7278 126.791C40.1008 126.687 40.4588 126.75 40.8317 126.993C41.2383 127.254 41.6224 127.231 42.0028 126.922C42.4802 126.53 42.9949 126.471 43.5282 126.743C43.9571 126.963 44.3823 127.228 44.7926 127.481C44.8075 127.493 44.8224 127.5 44.8373 127.511C43.159 127.787 39.7091 127.966 38.0756 127.869ZM44.7888 128.999C43.9646 129.831 42.8495 130.338 41.6448 130.417C41.6299 130.417 41.6187 130.417 41.6037 130.42C40.3991 130.487 39.2206 130.103 38.277 129.357L44.7888 128.999Z" fill="url(#paint14_linear_3490_22117)"/>
<path d="M35.0884 113.861C35.4017 114.107 35.6964 114.334 35.9873 114.562C36.1551 114.696 36.6698 115.099 37.1136 114.577C37.1957 114.483 37.2441 114.387 37.274 114.286C37.2889 114.551 37.3038 114.819 37.3187 115.103L37.3336 115.356L37.0502 115.371C36.5392 115.401 36.0581 115.423 35.5808 115.453C35.357 115.464 35.0772 115.505 34.8982 115.711C34.8199 115.8 34.7267 115.96 34.7416 116.214C34.7565 116.483 34.8982 116.923 35.6441 116.882C35.6479 116.882 35.6516 116.882 35.6591 116.882C35.9686 116.863 36.2819 116.844 36.5915 116.829C36.957 116.811 37.3224 116.792 37.6879 116.766C38.4339 116.717 38.7994 116.315 38.7695 115.565C38.7583 115.237 38.736 114.912 38.7173 114.588C38.7024 114.331 38.6875 114.073 38.6763 113.816C38.6614 113.506 38.5793 113.286 38.4227 113.141C38.3332 113.059 38.1691 112.962 37.9155 112.973H37.9118C37.6619 112.988 37.5127 113.096 37.4344 113.186C37.2553 113.383 37.2442 113.652 37.2553 113.872C37.1658 113.663 36.9793 113.518 36.8674 113.428C36.7481 113.335 36.6288 113.242 36.5094 113.145C36.1588 112.869 35.8008 112.581 35.4204 112.328C33.9584 111.343 32.3472 111.213 30.7621 111.955C30.2623 112.19 29.8148 112.525 29.3859 112.85C29.2293 112.966 29.0764 113.085 28.9197 113.197L28.8488 113.249C28.6437 113.391 28.364 113.585 28.3192 113.902C28.2931 114.088 28.3565 114.275 28.502 114.457C28.9495 114.998 29.4567 114.592 29.6731 114.42C29.7066 114.394 29.7402 114.368 29.7738 114.342L30.8778 113.525C31.0083 114.599 31.4409 115.74 32.9812 115.755C33.0297 115.755 33.0782 115.755 33.1229 115.752C34.1038 115.699 34.8125 114.983 35.0549 113.827L35.0884 113.861ZM33.6525 113.585C33.66 113.782 33.5891 113.973 33.4511 114.114C33.3243 114.248 33.1565 114.327 32.9738 114.331C32.7985 114.334 32.6157 114.256 32.4702 114.114C32.3285 113.976 32.2465 113.793 32.2427 113.618C32.2427 113.275 32.5038 112.958 32.7947 112.943C32.7984 112.943 32.8059 112.943 32.8097 112.943C33.5481 112.928 33.6451 113.301 33.6525 113.585Z" fill="url(#paint15_linear_3490_22117)"/>
<path d="M45.3818 114.088C45.5496 114.032 45.6578 113.909 45.7436 113.808C45.7735 113.775 45.7996 113.741 45.8331 113.715C46.1017 113.477 46.3702 113.242 46.6499 112.995L46.676 112.973C47.0602 114.211 47.7911 114.808 48.8503 114.752C48.8951 114.748 48.9361 114.745 48.9809 114.741C50.428 114.592 50.7748 113.454 50.8457 112.429C51.062 112.559 51.2783 112.69 51.4946 112.824C51.7408 112.973 51.9869 113.122 52.2331 113.271C52.8969 113.67 53.2289 113.23 53.3184 113.085C53.4265 112.906 53.6056 112.447 52.9753 112.048C52.841 111.962 52.7067 111.877 52.5725 111.787C52.3487 111.638 52.1212 111.492 51.8937 111.354C49.4098 109.874 46.7133 110.497 44.4979 113.059C44.2853 113.301 44.3748 113.782 44.5389 113.984C44.7888 114.286 45.3781 114.088 45.3818 114.088ZM49.2643 112.115C49.3725 112.208 49.4396 112.365 49.4545 112.552C49.4695 112.749 49.4061 112.939 49.2755 113.085C49.1524 113.227 48.9846 113.309 48.8019 113.32C48.6154 113.331 48.4364 113.264 48.2909 113.133C48.1455 113.003 48.0597 112.828 48.0485 112.634C48.0336 112.361 48.0187 112.082 48.9511 112.015C49.0704 112.007 49.1785 112.041 49.2643 112.115Z" fill="url(#paint16_linear_3490_22117)"/>
<path d="M45.5124 110.526L45.5646 110.5C45.7249 110.418 45.8853 110.336 46.0457 110.25C46.5865 109.971 47.1422 109.68 47.7054 109.445C49.2867 108.777 50.6853 108.863 51.9795 109.713C52.2257 109.874 52.4867 110.019 52.7366 110.154C52.8858 110.236 53.035 110.318 53.1804 110.403C53.3632 110.512 53.5459 110.56 53.7138 110.553C53.7772 110.549 53.8331 110.538 53.889 110.519C54.0084 110.474 54.1725 110.374 54.2583 110.131C54.3627 109.844 54.1762 109.355 53.9002 109.195L53.848 109.165C53.076 108.718 52.2778 108.259 51.4387 107.912C51.006 107.733 50.5436 107.655 50.096 107.58C49.9058 107.547 49.7119 107.517 49.5254 107.476C49.4881 107.468 49.4471 107.468 49.4098 107.472C47.9105 107.726 46.456 108.296 44.8373 109.266C44.6583 109.374 44.4084 109.549 44.345 109.833C44.304 110.012 44.345 110.198 44.4644 110.381C44.8 110.896 45.2998 110.635 45.5124 110.526Z" fill="url(#paint17_linear_3490_22117)"/>
<path d="M27.6437 110.284C27.4572 110.43 27.4498 110.668 27.4423 110.862C27.4423 110.918 27.4386 110.97 27.4311 111.019C27.4199 111.101 27.4386 111.183 27.4908 111.25C27.543 111.317 27.6176 111.358 27.6997 111.369C27.7519 111.377 27.8041 111.388 27.86 111.403C27.9719 111.429 28.1024 111.463 28.233 111.455C28.315 111.451 28.3933 111.433 28.4717 111.388C28.8297 111.183 29.1654 110.944 29.4898 110.713C29.6278 110.616 29.7621 110.519 29.9001 110.426C30.8101 109.803 31.75 109.568 32.7719 109.706C34.0176 109.878 35.1812 110.329 36.1584 110.747C36.3747 110.84 36.6059 110.758 36.7887 110.691C36.8446 110.668 36.9043 110.65 36.9565 110.635C37.046 110.612 37.1206 110.556 37.1616 110.474C37.2027 110.392 37.2064 110.299 37.1691 110.217C37.1467 110.165 37.1318 110.105 37.1131 110.045C37.0572 109.848 36.9863 109.605 36.7663 109.497C34.9835 108.617 33.4059 108.218 31.8022 108.24C31.7873 108.24 31.7761 108.24 31.7649 108.244C31.7201 108.251 31.6717 108.255 31.6195 108.263C31.4852 108.278 31.3136 108.296 31.1458 108.334C29.777 108.643 28.7066 109.467 27.6698 110.265L27.6437 110.284Z" fill="url(#paint18_linear_3490_22117)"/>
<path d="M38.5454 120.272C38.3738 120.309 38.2321 120.414 38.1202 120.585C37.9785 120.805 37.8293 121.238 38.4484 121.67C39.1906 122.193 40.0596 122.424 41.2643 122.424C41.268 122.424 41.2754 122.424 41.2792 122.424C41.2829 122.424 41.2866 122.424 41.2904 122.424C42.5025 122.316 43.3864 121.935 44.0801 121.23C44.233 121.074 44.4083 120.861 44.4046 120.589C44.4008 120.41 44.3262 120.246 44.1733 120.104C43.957 119.895 43.5915 119.739 43.0955 120.19C42.0325 121.152 40.4475 121.271 39.2391 120.477C39.0451 120.343 38.8065 120.216 38.5454 120.272Z" fill="url(#paint19_linear_3490_22117)"/>
<path d="M43.3904 123.009C43.3083 123.099 43.2114 123.263 43.2226 123.513C43.2338 123.77 43.3456 123.919 43.4389 124.005C43.5992 124.151 43.8267 124.207 44.14 124.192C44.3489 124.177 44.5615 124.169 44.7704 124.158C45.1321 124.139 45.4901 124.121 45.8482 124.091C45.878 124.087 45.9004 124.087 45.9153 124.087C45.919 124.102 45.9191 124.125 45.9191 124.154C45.9265 124.516 45.9489 124.878 45.9713 125.24L45.9936 125.631C46.0384 126.4 46.5829 126.433 46.747 126.426C46.7507 126.426 46.7507 126.426 46.7545 126.426C47.0081 126.411 47.1573 126.299 47.2393 126.209C47.3773 126.056 47.437 125.84 47.4221 125.56C47.4072 125.296 47.3923 125.035 47.3773 124.77C47.3587 124.401 47.34 124.035 47.3139 123.666C47.2692 123.017 46.8552 122.636 46.2062 122.644C45.9489 122.648 45.6915 122.663 45.4417 122.681C45.3298 122.689 45.2179 122.696 45.106 122.7L44.7592 122.719C44.5317 122.73 44.3004 122.745 44.0729 122.752C43.7596 122.774 43.5358 122.853 43.3904 123.009Z" fill="url(#paint20_linear_3490_22117)"/>
<path d="M36.7889 124.583C37.4639 124.583 38.0196 124.55 38.5306 124.475C38.7618 124.442 38.9184 124.263 39.0452 124.117C39.0863 124.072 39.1236 124.024 39.1646 123.987C39.2318 123.927 39.2691 123.837 39.2653 123.748C39.2616 123.658 39.2168 123.573 39.146 123.517C39.1012 123.483 39.0602 123.438 39.0154 123.397C38.8737 123.259 38.6984 123.084 38.4597 123.084C37.6765 123.084 36.8933 123.136 36.166 123.196C35.5544 123.244 35.1926 123.662 35.2001 124.304C35.2038 124.527 35.215 124.751 35.2299 124.975C35.2336 125.053 35.2411 125.132 35.2448 125.21C35.2411 125.229 35.2411 125.243 35.2448 125.262L35.297 126.206C35.3381 126.97 35.8863 127.008 36.0541 127.004C36.0578 127.004 36.0616 127.004 36.069 127.004C36.3189 126.989 36.4681 126.881 36.5502 126.787C36.6882 126.635 36.7478 126.415 36.7292 126.139C36.718 125.967 36.7106 125.795 36.7031 125.624C36.6919 125.34 36.6807 125.046 36.6471 124.755C36.636 124.65 36.6434 124.602 36.6359 124.594C36.6583 124.594 36.6994 124.587 36.7889 124.583Z" fill="url(#paint21_linear_3490_22117)"/>
<path d="M46.9671 129.831C46.7508 129.827 46.5829 129.905 46.4561 130.04C46.2622 130.249 46.2547 130.543 46.2659 130.774L46.3331 131.968L46.348 132.233L46.0049 132.251C45.4865 132.277 44.9941 132.304 44.5018 132.337C44.2109 132.356 43.9797 132.468 43.8529 132.65C43.7447 132.8 43.7186 132.99 43.7708 133.187C43.8566 133.497 44.2818 133.747 44.5802 133.747C44.9531 133.747 45.3261 133.736 45.6953 133.713C46.0198 133.695 46.3405 133.672 46.6538 133.65L46.7732 133.642C47.4594 133.594 47.8249 133.184 47.7951 132.49C47.7802 132.147 47.7615 131.8 47.7429 131.457C47.728 131.203 47.713 130.95 47.7018 130.692C47.6683 129.969 47.2841 129.823 46.9671 129.831Z" fill="url(#paint22_linear_3490_22117)"/>
<path d="M39.228 132.691C39.0639 132.602 38.8886 132.624 38.7469 132.643C38.7134 132.647 38.6798 132.654 38.6462 132.654C38.2322 132.676 37.822 132.699 37.3856 132.721L37.0984 132.736L37.0835 132.456C37.0611 132.024 37.0388 131.621 37.0164 131.218C36.9754 130.457 36.4458 130.405 36.2817 130.405C36.0243 130.405 35.8676 130.517 35.7819 130.61C35.6401 130.763 35.5693 130.987 35.5842 131.263L35.5879 131.379C35.6178 131.979 35.6476 132.598 35.6924 133.21C35.7371 133.803 36.1138 134.183 36.6509 134.176C37.0276 134.172 37.4155 134.161 37.8183 134.138C38.236 134.116 38.6723 134.083 39.131 134.038C39.4331 134.008 39.7725 133.628 39.7614 133.333C39.7502 133.008 39.3846 132.777 39.228 132.691Z" fill="url(#paint23_linear_3490_22117)"/>
<path d="M26.652 110.045C26.7415 110.124 26.9019 110.217 27.1443 110.202C27.1517 110.202 27.1592 110.202 27.1666 110.202C27.3307 110.187 27.8678 110.086 27.8231 109.322C27.8119 109.161 27.8082 108.997 27.8007 108.833C27.7858 108.524 27.7746 108.207 27.741 107.89C27.7373 107.852 27.7373 107.83 27.7373 107.811C27.7559 107.808 27.7858 107.804 27.8305 107.804C28.1475 107.796 28.4683 107.778 28.7853 107.759C29.0053 107.744 29.2216 107.733 29.4417 107.726C29.6729 107.711 29.9713 107.677 30.1578 107.464C30.2771 107.33 30.3331 107.151 30.3144 106.942C30.2771 106.469 29.9489 106.245 29.341 106.293C29.1247 106.308 28.9083 106.319 28.6883 106.331L28.4347 106.342C28.4235 106.342 28.4123 106.342 28.4012 106.342L28.0692 106.357C27.8156 106.368 27.5582 106.379 27.3046 106.402C26.6408 106.461 26.2716 106.868 26.2939 107.52C26.3088 107.96 26.3349 108.404 26.361 108.844L26.3946 109.415C26.4058 109.698 26.4916 109.907 26.652 110.045Z" fill="url(#paint24_linear_3490_22117)"/>
<path d="M35.1292 107.416C35.312 107.405 35.4948 107.397 35.6775 107.39C36.0281 107.375 36.3899 107.36 36.7517 107.319C36.774 107.315 36.7926 107.315 36.8113 107.315C36.8598 107.311 36.8859 107.315 36.8933 107.311C36.9008 107.33 36.912 107.375 36.9083 107.479C36.9045 107.785 36.9269 108.091 36.9493 108.389C36.9605 108.531 36.968 108.676 36.9754 108.818C37.0127 109.575 37.4976 109.639 37.7064 109.631C37.7139 109.631 37.7213 109.631 37.7251 109.631C37.975 109.616 38.1241 109.508 38.2062 109.419C38.3516 109.258 38.415 109.034 38.4001 108.729L38.3778 108.251C38.3554 107.8 38.333 107.338 38.2957 106.879C38.2397 106.219 37.8407 105.864 37.1731 105.876C36.9306 105.879 36.6882 105.894 36.4495 105.909C36.3451 105.917 36.2407 105.924 36.1363 105.928C36.1325 105.928 36.1288 105.931 36.1213 105.928L35.7782 105.946C35.532 105.961 35.2859 105.972 35.036 105.987C35.0323 105.987 35.0286 105.987 35.0249 105.987C34.2603 106.028 34.223 106.565 34.2304 106.73C34.2416 106.994 34.3572 107.147 34.4505 107.233C34.6034 107.375 34.8234 107.423 35.1292 107.416Z" fill="url(#paint25_linear_3490_22117)"/>
<path d="M26.7713 116.319C26.8198 116.945 27.2263 117.311 27.864 117.299C28.0095 117.296 28.1512 117.292 28.2967 117.285C28.4048 117.277 28.5167 117.27 28.6249 117.266C28.7368 117.258 28.8487 117.255 28.9643 117.247L29.3372 117.225C29.5722 117.21 29.8109 117.199 30.0496 117.188C30.3405 117.173 30.5419 117.091 30.6799 116.934C30.7619 116.841 30.8589 116.677 30.844 116.423C30.829 116.169 30.7134 116.016 30.6165 115.934C30.4598 115.796 30.2398 115.737 29.9675 115.752C29.7139 115.767 29.4603 115.782 29.2067 115.793C28.8785 115.811 28.5466 115.826 28.2184 115.852C28.2034 115.856 28.1885 115.856 28.1773 115.852C28.1773 115.841 28.1736 115.826 28.1736 115.808L28.1699 115.636C28.1587 115.185 28.1475 114.715 28.0692 114.256C28.0319 114.025 27.8491 113.872 27.7037 113.745C27.6589 113.704 27.6104 113.667 27.5731 113.626C27.5097 113.559 27.424 113.525 27.3307 113.529C27.2412 113.533 27.1554 113.581 27.1032 113.652C27.0696 113.697 27.0286 113.741 26.9876 113.786C26.857 113.928 26.6892 114.107 26.6855 114.342C26.6743 114.987 26.7228 115.64 26.7713 116.27V116.319Z" fill="url(#paint26_linear_3490_22117)"/>
</g>
<defs>
<linearGradient id="paint0_linear_3490_22117" x1="0.00320745" y1="31.1645" x2="83.9279" y2="31.1645" gradientUnits="userSpaceOnUse">
<stop stop-color="#2B2B65"/>
<stop offset="1" stop-color="#1D70B6"/>
</linearGradient>
<linearGradient id="paint1_linear_3490_22117" x1="12.629" y1="41.9625" x2="71.302" y2="41.9625" gradientUnits="userSpaceOnUse">
<stop stop-color="#2B2B65"/>
<stop offset="1" stop-color="#1D70B6"/>
</linearGradient>
<linearGradient id="paint2_linear_3490_22117" x1="26.2449" y1="41.9626" x2="57.6857" y2="41.9626" gradientUnits="userSpaceOnUse">
<stop stop-color="#2B2B65"/>
<stop offset="1" stop-color="#1D70B6"/>
</linearGradient>
<linearGradient id="paint3_linear_3490_22117" x1="51.9691" y1="50.2519" x2="100.652" y2="50.2519" gradientUnits="userSpaceOnUse">
<stop stop-color="#2B2B65"/>
<stop offset="1" stop-color="#35A7DF"/>
</linearGradient>
<linearGradient id="paint4_linear_3490_22117" x1="51.1795" y1="60.5937" x2="87.7571" y2="60.5937" gradientUnits="userSpaceOnUse">
<stop stop-color="#2B2B65"/>
<stop offset="1" stop-color="#1D70B6"/>
</linearGradient>
<linearGradient id="paint5_linear_3490_22117" x1="14.5147" y1="74.5916" x2="87.7002" y2="74.5916" gradientUnits="userSpaceOnUse">
<stop stop-color="#2B2B65"/>
<stop offset="1" stop-color="#35A7DF"/>
</linearGradient>
<linearGradient id="paint6_linear_3490_22117" x1="97.4999" y1="103.147" x2="85.5141" y2="100.127" gradientUnits="userSpaceOnUse">
<stop stop-color="#2B2B65"/>
<stop offset="1" stop-color="#1D70B6"/>
</linearGradient>
<linearGradient id="paint7_linear_3490_22117" x1="103.111" y1="92.6553" x2="97.3294" y2="104.878" gradientUnits="userSpaceOnUse">
<stop stop-color="#2B2B65"/>
<stop offset="1" stop-color="#1D70B6"/>
</linearGradient>
<linearGradient id="paint8_linear_3490_22117" x1="103.578" y1="26.18" x2="100.984" y2="36.4756" gradientUnits="userSpaceOnUse">
<stop stop-color="#2B2B65"/>
<stop offset="1" stop-color="#1D70B6"/>
</linearGradient>
<linearGradient id="paint9_linear_3490_22117" x1="94.5659" y1="21.3608" x2="105.065" y2="26.3268" gradientUnits="userSpaceOnUse">
<stop stop-color="#2B2B65"/>
<stop offset="1" stop-color="#1D70B6"/>
</linearGradient>
<linearGradient id="paint10_linear_3490_22117" x1="32.7794" y1="123.388" x2="32.7794" y2="66.3321" gradientUnits="userSpaceOnUse">
<stop stop-color="#006633"/>
<stop offset="1" stop-color="#92BF1F"/>
</linearGradient>
<linearGradient id="paint11_linear_3490_22117" x1="55.287" y1="125.248" x2="18.4299" y2="86.8113" gradientUnits="userSpaceOnUse">
<stop stop-color="#92BF1F"/>
<stop offset="0.2037" stop-color="#B7CF20"/>
<stop offset="0.4109" stop-color="#D4DC20"/>
<stop offset="0.6155" stop-color="#EAE521"/>
<stop offset="0.8142" stop-color="#F7EB21"/>
<stop offset="1" stop-color="#FBED21"/>
</linearGradient>
<linearGradient id="paint12_linear_3490_22117" x1="52.3632" y1="128.052" x2="15.5061" y2="89.615" gradientUnits="userSpaceOnUse">
<stop stop-color="#92BF1F"/>
<stop offset="0.2037" stop-color="#B7CF20"/>
<stop offset="0.4109" stop-color="#D4DC20"/>
<stop offset="0.6155" stop-color="#EAE521"/>
<stop offset="0.8142" stop-color="#F7EB21"/>
<stop offset="1" stop-color="#FBED21"/>
</linearGradient>
<linearGradient id="paint13_linear_3490_22117" x1="32.0439" y1="147.536" x2="-4.81322" y2="109.099" gradientUnits="userSpaceOnUse">
<stop stop-color="#92BF1F"/>
<stop offset="0.2037" stop-color="#B7CF20"/>
<stop offset="0.4109" stop-color="#D4DC20"/>
<stop offset="0.6155" stop-color="#EAE521"/>
<stop offset="0.8142" stop-color="#F7EB21"/>
<stop offset="1" stop-color="#FBED21"/>
</linearGradient>
<linearGradient id="paint14_linear_3490_22117" x1="46.6092" y1="133.569" x2="9.75213" y2="95.1326" gradientUnits="userSpaceOnUse">
<stop stop-color="#92BF1F"/>
<stop offset="0.2037" stop-color="#B7CF20"/>
<stop offset="0.4109" stop-color="#D4DC20"/>
<stop offset="0.6155" stop-color="#EAE521"/>
<stop offset="0.8142" stop-color="#F7EB21"/>
<stop offset="1" stop-color="#FBED21"/>
</linearGradient>
<linearGradient id="paint15_linear_3490_22117" x1="49.6332" y1="130.67" x2="12.7761" y2="92.2328" gradientUnits="userSpaceOnUse">
<stop stop-color="#92BF1F"/>
<stop offset="0.2037" stop-color="#B7CF20"/>
<stop offset="0.4109" stop-color="#D4DC20"/>
<stop offset="0.6155" stop-color="#EAE521"/>
<stop offset="0.8142" stop-color="#F7EB21"/>
<stop offset="1" stop-color="#FBED21"/>
</linearGradient>
<linearGradient id="paint16_linear_3490_22117" x1="58.0136" y1="122.633" x2="21.1565" y2="84.1965" gradientUnits="userSpaceOnUse">
<stop stop-color="#92BF1F"/>
<stop offset="0.2037" stop-color="#B7CF20"/>
<stop offset="0.4109" stop-color="#D4DC20"/>
<stop offset="0.6155" stop-color="#EAE521"/>
<stop offset="0.8142" stop-color="#F7EB21"/>
<stop offset="1" stop-color="#FBED21"/>
</linearGradient>
<linearGradient id="paint17_linear_3490_22117" x1="59.8326" y1="120.889" x2="22.9755" y2="82.4525" gradientUnits="userSpaceOnUse">
<stop stop-color="#92BF1F"/>
<stop offset="0.2037" stop-color="#B7CF20"/>
<stop offset="0.4109" stop-color="#D4DC20"/>
<stop offset="0.6155" stop-color="#EAE521"/>
<stop offset="0.8142" stop-color="#F7EB21"/>
<stop offset="1" stop-color="#FBED21"/>
</linearGradient>
<linearGradient id="paint18_linear_3490_22117" x1="50.6662" y1="129.679" x2="13.8091" y2="91.242" gradientUnits="userSpaceOnUse">
<stop stop-color="#92BF1F"/>
<stop offset="0.2037" stop-color="#B7CF20"/>
<stop offset="0.4109" stop-color="#D4DC20"/>
<stop offset="0.6155" stop-color="#EAE521"/>
<stop offset="0.8142" stop-color="#F7EB21"/>
<stop offset="1" stop-color="#FBED21"/>
</linearGradient>
<linearGradient id="paint19_linear_3490_22117" x1="50.1746" y1="130.15" x2="13.3172" y2="91.7135" gradientUnits="userSpaceOnUse">
<stop stop-color="#92BF1F"/>
<stop offset="0.2037" stop-color="#B7CF20"/>
<stop offset="0.4109" stop-color="#D4DC20"/>
<stop offset="0.6155" stop-color="#EAE521"/>
<stop offset="0.8142" stop-color="#F7EB21"/>
<stop offset="1" stop-color="#FBED21"/>
</linearGradient>
<linearGradient id="paint20_linear_3490_22117" x1="50.9307" y1="129.425" x2="14.0735" y2="90.9886" gradientUnits="userSpaceOnUse">
<stop stop-color="#92BF1F"/>
<stop offset="0.2037" stop-color="#B7CF20"/>
<stop offset="0.4109" stop-color="#D4DC20"/>
<stop offset="0.6155" stop-color="#EAE521"/>
<stop offset="0.8142" stop-color="#F7EB21"/>
<stop offset="1" stop-color="#FBED21"/>
</linearGradient>
<linearGradient id="paint21_linear_3490_22117" x1="45.9774" y1="134.175" x2="9.12026" y2="95.7382" gradientUnits="userSpaceOnUse">
<stop stop-color="#92BF1F"/>
<stop offset="0.2037" stop-color="#B7CF20"/>
<stop offset="0.4109" stop-color="#D4DC20"/>
<stop offset="0.6155" stop-color="#EAE521"/>
<stop offset="0.8142" stop-color="#F7EB21"/>
<stop offset="1" stop-color="#FBED21"/>
</linearGradient>
<linearGradient id="paint22_linear_3490_22117" x1="47.054" y1="133.143" x2="10.1969" y2="94.7059" gradientUnits="userSpaceOnUse">
<stop stop-color="#92BF1F"/>
<stop offset="0.2037" stop-color="#B7CF20"/>
<stop offset="0.4109" stop-color="#D4DC20"/>
<stop offset="0.6155" stop-color="#EAE521"/>
<stop offset="0.8142" stop-color="#F7EB21"/>
<stop offset="1" stop-color="#FBED21"/>
</linearGradient>
<linearGradient id="paint23_linear_3490_22117" x1="42.0775" y1="137.915" x2="5.22038" y2="99.478" gradientUnits="userSpaceOnUse">
<stop stop-color="#92BF1F"/>
<stop offset="0.2037" stop-color="#B7CF20"/>
<stop offset="0.4109" stop-color="#D4DC20"/>
<stop offset="0.6155" stop-color="#EAE521"/>
<stop offset="0.8142" stop-color="#F7EB21"/>
<stop offset="1" stop-color="#FBED21"/>
</linearGradient>
<linearGradient id="paint24_linear_3490_22117" x1="49.7564" y1="130.551" x2="12.8993" y2="92.1146" gradientUnits="userSpaceOnUse">
<stop stop-color="#92BF1F"/>
<stop offset="0.2037" stop-color="#B7CF20"/>
<stop offset="0.4109" stop-color="#D4DC20"/>
<stop offset="0.6155" stop-color="#EAE521"/>
<stop offset="0.8142" stop-color="#F7EB21"/>
<stop offset="1" stop-color="#FBED21"/>
</linearGradient>
<linearGradient id="paint25_linear_3490_22117" x1="54.6217" y1="125.886" x2="17.7648" y2="87.4491" gradientUnits="userSpaceOnUse">
<stop stop-color="#92BF1F"/>
<stop offset="0.2037" stop-color="#B7CF20"/>
<stop offset="0.4109" stop-color="#D4DC20"/>
<stop offset="0.6155" stop-color="#EAE521"/>
<stop offset="0.8142" stop-color="#F7EB21"/>
<stop offset="1" stop-color="#FBED21"/>
</linearGradient>
<linearGradient id="paint26_linear_3490_22117" x1="45.8915" y1="134.257" x2="9.03441" y2="95.8207" gradientUnits="userSpaceOnUse">
<stop stop-color="#92BF1F"/>
<stop offset="0.2037" stop-color="#B7CF20"/>
<stop offset="0.4109" stop-color="#D4DC20"/>
<stop offset="0.6155" stop-color="#EAE521"/>
<stop offset="0.8142" stop-color="#F7EB21"/>
<stop offset="1" stop-color="#FBED21"/>
</linearGradient>
</defs>
</svg>
